<svg width="39" height="32" viewBox="0 0 39 32" fill="none" xmlns="http://www.w3.org/2000/svg">
<path fill-rule="evenodd" clip-rule="evenodd" d="M18.2394 9.71062C18.6202 10.0914 18.6202 10.7087 18.2394 11.0895L13.7289 15.6L18.2394 20.1106C18.6202 20.4914 18.6202 21.1087 18.2394 21.4895C17.8587 21.8702 17.2413 21.8702 16.8606 21.4895L11.6606 16.2895C11.2798 15.9087 11.2798 15.2914 11.6606 14.9106L16.8606 9.71062C17.2413 9.32986 17.8587 9.32986 18.2394 9.71062Z" fill="#879BFF"/>
<path fill-rule="evenodd" clip-rule="evenodd" d="M26.0394 9.71062C26.4202 10.0914 26.4202 10.7087 26.0394 11.0895L21.5288 15.6L26.0394 20.1106C26.4202 20.4914 26.4202 21.1087 26.0394 21.4895C25.6587 21.8702 25.0413 21.8702 24.6606 21.4895L19.4606 16.2895C19.0798 15.9087 19.0798 15.2914 19.4606 14.9106L24.6606 9.71062C25.0413 9.32986 25.6587 9.32986 26.0394 9.71062Z" fill="#879BFF"/>
</svg>
