<svg width="20" height="20" viewBox="0 0 20 20" fill="none" xmlns="http://www.w3.org/2000/svg">
<path d="M8.33329 1.875C7.98811 1.875 7.70829 2.15482 7.70829 2.5V3.125H4.16663C3.82145 3.125 3.54163 3.40482 3.54163 3.75C3.54163 4.09518 3.82145 4.375 4.16663 4.375H15.8333C16.1785 4.375 16.4583 4.09518 16.4583 3.75C16.4583 3.40482 16.1785 3.125 15.8333 3.125H12.2916V2.5C12.2916 2.15482 12.0118 1.875 11.6666 1.875H8.33329Z" fill="#EA4334"/>
<path d="M10.8839 12.5L12.1086 13.7247C12.3526 13.9688 12.3526 14.3645 12.1086 14.6086C11.8645 14.8527 11.4688 14.8527 11.2247 14.6086L9.99997 13.3839L8.77524 14.6086C8.53116 14.8527 8.13544 14.8527 7.89136 14.6086C7.64728 14.3645 7.64728 13.9688 7.89136 13.7247L9.11608 12.5L7.89135 11.2753C7.64727 11.0312 7.64727 10.6355 7.89135 10.3914C8.13543 10.1473 8.53116 10.1473 8.77523 10.3914L9.99997 11.6161L11.2247 10.3914C11.4688 10.1473 11.8645 10.1473 12.1086 10.3914C12.3527 10.6355 12.3527 11.0312 12.1086 11.2753L10.8839 12.5Z" fill="#EA4334"/>
<path fill-rule="evenodd" clip-rule="evenodd" d="M4.99281 6.59765C5.02798 6.28113 5.29552 6.04167 5.61399 6.04167H14.3859C14.7044 6.04167 14.9719 6.28113 15.0071 6.59765L15.1739 8.09877C15.4762 10.8199 15.4762 13.5661 15.1739 16.2872L15.1575 16.435C15.0375 17.5151 14.2003 18.3764 13.1241 18.5271C11.0514 18.8172 8.94848 18.8172 6.87586 18.5271C5.79958 18.3764 4.96246 17.5151 4.84244 16.435L4.82602 16.2872C4.52368 13.5661 4.52368 10.8199 4.82602 8.09877L4.99281 6.59765ZM6.17339 7.29167L6.06838 8.23681C5.77623 10.8662 5.77623 13.5198 6.06838 16.1492L6.0848 16.2969C6.14171 16.8092 6.53873 17.2177 7.04917 17.2891C9.00681 17.5632 10.9931 17.5632 12.9507 17.2891C13.4612 17.2177 13.8582 16.8092 13.9151 16.2969L13.9315 16.1492C14.2237 13.5198 14.2237 10.8662 13.9315 8.23681L13.8265 7.29167H6.17339Z" fill="#EA4334"/>
</svg>
