<svg width="20" height="20" viewBox="0 0 20 20" fill="none" xmlns="http://www.w3.org/2000/svg">
<path fill-rule="evenodd" clip-rule="evenodd" d="M12.6141 2.89155C12.4969 2.77434 12.338 2.7085 12.1722 2.7085C12.0064 2.7085 11.8475 2.77434 11.7303 2.89155L4.06994 10.5519C3.99142 10.6304 3.93524 10.7284 3.90717 10.8359L3.07384 14.0262C3.01776 14.2409 3.07971 14.4692 3.23661 14.6261C3.3935 14.783 3.62182 14.845 3.8365 14.7889L7.02686 13.9556C7.1343 13.9275 7.23232 13.8713 7.31085 13.7928L14.9712 6.13246C15.2152 5.88838 15.2152 5.49265 14.9712 5.24858L12.6141 2.89155ZM5.07374 11.3158L12.1722 4.21738L13.6453 5.69052L6.54688 12.789L4.5529 13.3098L5.07374 11.3158Z" fill="#617BFF"/>
<path d="M3.33337 16.0418C2.9882 16.0418 2.70837 16.3217 2.70837 16.6668C2.70837 17.012 2.9882 17.2918 3.33337 17.2918H15.8334C16.1786 17.2918 16.4584 17.012 16.4584 16.6668C16.4584 16.3217 16.1786 16.0418 15.8334 16.0418H3.33337Z" fill="#617BFF"/>
</svg>
