<svg width="30" height="30" viewBox="0 0 30 30" fill="none" xmlns="http://www.w3.org/2000/svg">
<path d="M10.8329 10.8337C9.72777 10.8337 8.66791 10.3947 7.88647 9.6133C7.10502 8.83186 6.66602 7.772 6.66602 6.66687C6.66602 5.56175 7.10502 4.50189 7.88647 3.72045C8.66791 2.93901 9.72777 2.5 10.8329 2.5H14.9991V10.8337M10.8329 10.8337H14.9991M10.8329 10.8337C9.72793 10.8337 8.66823 11.2727 7.88691 12.054C7.10558 12.8353 6.66664 13.895 6.66664 15C6.66664 16.105 7.10558 17.1647 7.88691 17.946C8.66823 18.7273 9.72793 19.1663 10.8329 19.1663H14.9991V10.8337" stroke="#27187E" stroke-width="2.25"/>
<path d="M23.3323 14.9999C23.3323 16.105 22.8933 17.1649 22.1118 17.9463C21.3304 18.7277 20.2705 19.1668 19.1654 19.1668C18.0603 19.1668 17.0004 18.7277 16.219 17.9463C15.4375 17.1649 14.9985 16.105 14.9985 14.9999C14.9985 13.8948 15.4375 12.8349 16.219 12.0535C17.0004 11.272 18.0603 10.833 19.1654 10.833C20.2705 10.833 21.3304 11.272 22.1118 12.0535C22.8933 12.8349 23.3323 13.8948 23.3323 14.9999ZM10.8323 19.1674H14.9985V23.3336C14.9983 24.1576 14.7537 24.963 14.2958 25.6479C13.8378 26.3329 13.1871 26.8667 12.4258 27.1819C11.6645 27.497 10.8268 27.5793 10.0187 27.4184C9.21062 27.2575 8.46838 26.8606 7.88584 26.2779C7.30331 25.6952 6.90663 24.9529 6.74598 24.1447C6.58533 23.3366 6.6679 22.4989 6.98327 21.7377C7.29864 20.9765 7.83264 20.3259 8.51775 19.8682C9.20286 19.4104 10.0083 19.1674 10.8323 19.1674Z" stroke="#27187E" stroke-width="2.25"/>
<path d="M15 2.5H19.1663C20.2714 2.5 21.3312 2.93901 22.1127 3.72045C22.8941 4.50189 23.3331 5.56175 23.3331 6.66687C23.3331 7.772 22.8941 8.83186 22.1127 9.6133C21.3312 10.3947 20.2714 10.8337 19.1663 10.8337H15V2.5Z" stroke="#27187E" stroke-width="2.25"/>
</svg>
