<svg xmlns="http://www.w3.org/2000/svg" width="36" height="18" viewBox="0 0 36 18" fill="none">
<path fill-rule="evenodd" clip-rule="evenodd" d="M11.7277 0.389753L1.54997 6.26714C0.15503 7.07123 -0.322536 8.85488 0.483772 10.2498C1.28786 11.6448 3.07151 12.1223 4.46645 11.316L14.6441 5.44084C16.0391 4.63676 16.5166 2.8531 15.7103 1.45817C14.9063 0.0632307 13.1226 -0.414332 11.7277 0.391976V0.389753Z" fill="#EA4334"/>
<path fill-rule="evenodd" clip-rule="evenodd" d="M14.5509 12.1885L4.37318 6.31336C2.97824 5.50927 1.19681 5.98683 0.390504 7.37955C-0.413583 8.77448 0.0639821 10.5559 1.4567 11.3622L11.6344 17.2374C13.0293 18.0415 14.8108 17.5639 15.6171 16.1712C16.4212 14.7763 15.9436 12.9948 14.5509 12.1885Z" fill="#4285F4"/>
<path fill-rule="evenodd" clip-rule="evenodd" d="M21.3566 12.2818L31.5343 6.40662C32.9292 5.60253 34.7107 6.0801 35.517 7.47281C36.3211 8.86775 35.8435 10.6492 34.4508 11.4555L24.2731 17.3306C22.8781 18.1347 21.0967 17.6572 20.2904 16.2645C19.4863 14.8695 19.9639 13.0881 21.3566 12.2818Z" fill="#FCBC05"/>
<path fill-rule="evenodd" clip-rule="evenodd" d="M24.3639 0.482796L34.5416 6.35797C35.9365 7.16205 36.4141 8.9457 35.6078 10.3406C34.8037 11.7356 33.0201 12.2131 31.6251 11.4068L21.4474 5.53167C20.0525 4.72758 19.5749 2.94393 20.3812 1.54899C21.1853 0.154054 22.969 -0.323513 24.3639 0.482796Z" fill="#0D9D58"/>
</svg>