<svg xmlns="http://www.w3.org/2000/svg" width="36" height="37" viewBox="0 0 36 37" fill="none">
<path fill-rule="evenodd" clip-rule="evenodd" d="M16.5 5.13814C11.7905 5.13814 8.03226 8.84952 8.03226 13.355C8.03226 16.093 9.14448 18.4543 11.1285 19.9249C11.5658 20.249 11.9399 20.7324 12.0832 21.3456C12.2008 21.8489 12.3353 22.4622 12.4686 23.1121H20.5314C20.6647 22.4622 20.7992 21.8489 20.9168 21.3456C21.0601 20.7324 21.4342 20.249 21.8715 19.9249C23.8555 18.4543 24.9677 16.093 24.9677 13.355C24.9677 8.84952 21.2095 5.13814 16.5 5.13814ZM20.1428 25.1609H12.8572C13.0068 26.0318 13.1242 26.8565 13.1597 27.4486C13.1971 28.0719 13.6593 28.6306 14.3407 28.779L14.6062 28.8369C15.8532 29.1085 17.1468 29.1085 18.3938 28.8369L18.6593 28.779C19.3407 28.6306 19.8029 28.0719 19.8403 27.4486C19.8758 26.8565 19.9932 26.0318 20.1428 25.1609ZM6 13.355C6 7.65289 10.7339 3.08936 16.5 3.08936C22.2661 3.08936 27 7.65289 27 13.355C27 16.6657 25.6403 19.6743 23.0753 21.5756C22.9583 21.6623 22.9094 21.7535 22.895 21.8153C22.7346 22.5019 22.5392 23.4105 22.361 24.3324C22.1134 25.6139 21.9118 26.8569 21.8689 27.5723C21.7739 29.1542 20.6195 30.4481 19.0885 30.7816L18.823 30.8394C17.2931 31.1727 15.7069 31.1727 14.177 30.8394L13.9115 30.7816C12.3805 30.4481 11.2261 29.1542 11.1311 27.5723C11.0882 26.8569 10.8866 25.6139 10.639 24.3324C10.4608 23.4105 10.2654 22.5019 10.105 21.8153C10.0906 21.7535 10.0417 21.6623 9.92471 21.5756C7.35967 19.6743 6 16.6657 6 13.355Z" fill="#FF8600"/>
</svg>