<svg width="306" height="42" viewBox="0 0 306 42" fill="none" xmlns="http://www.w3.org/2000/svg">
<path d="M127.386 19.6648C127.386 23.4711 126.257 26.5075 123.996 28.7693C121.456 31.4614 118.119 32.8051 113.978 32.8051C109.837 32.8051 106.666 31.4327 103.922 28.6928C101.182 25.9528 99.8093 22.5769 99.8093 18.565C99.8093 14.5531 101.182 11.1771 103.922 8.4324C106.662 5.69244 110.014 4.32007 113.978 4.32007C115.981 4.32007 117.875 4.67393 119.654 5.38641C121.433 6.09889 122.891 7.09828 124.034 8.39415L121.519 10.9094C120.682 9.89562 119.596 9.10185 118.262 8.52803C116.928 7.959 115.503 7.6721 113.978 7.6721C111.008 7.6721 108.493 8.70018 106.437 10.7563C104.405 12.8364 103.391 15.4425 103.391 18.565C103.391 21.6875 104.405 24.2888 106.437 26.3736C108.493 28.4298 111.008 29.4579 113.978 29.4579C116.694 29.4579 118.956 28.6976 120.758 27.1722C122.561 25.6468 123.603 23.5524 123.881 20.8889H113.978V17.6134H127.195C127.324 18.3259 127.386 19.0097 127.386 19.6696V19.6648Z" fill="#676C72"/>
<path d="M131.651 32.1976V4.93188H139.991C144.156 4.93188 147.498 6.18949 150.028 8.69993C152.553 11.2151 153.815 14.5002 153.815 18.5647C153.815 22.6292 152.553 25.9478 150.028 28.4487C147.503 30.9495 144.156 32.1976 139.991 32.1976H131.651ZM135.157 8.27913V28.8456H139.991C143.166 28.8456 145.667 27.937 147.494 26.1247C149.32 24.3077 150.233 21.7877 150.233 18.5647C150.233 15.3418 149.32 12.8505 147.494 11.0239C145.667 9.19723 143.166 8.28392 139.991 8.28392H135.157V8.27913Z" fill="#676C72"/>
<path d="M184.208 19.6648C184.208 23.4711 183.08 26.5075 180.818 28.7693C178.279 31.4614 174.941 32.8051 170.8 32.8051C166.659 32.8051 163.489 31.4327 160.744 28.6928C158.004 25.9528 156.632 22.5769 156.632 18.565C156.632 14.5531 158.004 11.1771 160.744 8.4324C163.484 5.69244 166.836 4.32007 170.8 4.32007C172.804 4.32007 174.697 4.67393 176.476 5.38641C178.255 6.09889 179.713 7.09828 180.856 8.39415L178.341 10.9094C177.504 9.89562 176.419 9.10185 175.084 8.52803C173.75 7.959 172.325 7.6721 170.8 7.6721C167.831 7.6721 165.315 8.70018 163.259 10.7563C161.227 12.8364 160.213 15.4425 160.213 18.565C160.213 21.6875 161.227 24.2888 163.259 26.3736C165.315 28.4298 167.831 29.4579 170.8 29.4579C173.516 29.4579 175.778 28.6976 177.581 27.1722C179.383 25.6468 180.426 23.5524 180.703 20.8889H170.8V17.6134H184.017C184.146 18.3259 184.208 19.0097 184.208 19.6696V19.6648Z" fill="#676C72"/>
<path d="M197.305 32.1976H193.422L203.703 4.93188H207.663L217.943 32.1976H214.061L211.431 24.8097H199.969L197.305 32.1976ZM205.606 9.23071L201.15 21.5342H210.216L205.759 9.23071H205.606Z" fill="#676C72"/>
<path d="M224.04 4.927V32.1927H220.535V4.927H224.04Z" fill="#676C72"/>
<path d="M236.382 41.0296C235.34 41.0296 234.364 40.8957 233.451 40.6279C232.538 40.3602 231.706 39.9872 230.955 39.5042C230.204 39.0213 229.563 38.4522 229.033 37.7923C228.497 37.1325 228.095 36.3961 227.813 35.5832L231.127 34.2108C231.51 35.301 232.169 36.1761 233.107 36.8408C234.044 37.5007 235.139 37.8306 236.382 37.8306C238.285 37.8306 239.773 37.2616 240.839 36.1187C241.905 34.9759 242.441 33.4027 242.441 31.3943V29.6059H242.288C241.628 30.5958 240.734 31.3752 239.605 31.949C238.477 32.518 237.248 32.805 235.928 32.805C233.489 32.805 231.395 31.8534 229.645 29.9502C227.918 27.9945 227.053 25.6323 227.053 22.8684C227.053 20.1046 227.914 17.7519 229.645 15.8249C231.395 13.8978 233.489 12.9319 235.928 12.9319C237.248 12.9319 238.472 13.2188 239.605 13.7878C240.734 14.3569 241.628 15.1411 242.288 16.1309H242.441V13.5392H245.793V31.3991C245.793 34.3925 244.942 36.7451 243.239 38.4427C241.513 40.1689 239.227 41.0344 236.382 41.0344V41.0296ZM236.497 29.6059C238.223 29.6059 239.634 28.9843 240.724 27.7411C241.867 26.4978 242.436 24.872 242.436 22.8684C242.436 20.8649 241.867 19.3012 240.724 18.034C239.605 16.7669 238.199 16.1309 236.497 16.1309C234.795 16.1309 233.413 16.7669 232.27 18.034C231.127 19.306 230.558 20.9175 230.558 22.8684C230.558 24.8194 231.127 26.4595 232.27 27.7076C233.413 28.9795 234.823 29.6107 236.497 29.6107V29.6059Z" fill="#676C72"/>
<path d="M254.586 7.09815C254.586 7.78195 254.342 8.37011 253.864 8.84829C253.381 9.33125 252.798 9.57034 252.114 9.57034C251.43 9.57034 250.842 9.33125 250.364 8.84829C249.881 8.36533 249.642 7.78195 249.642 7.09815C249.642 6.41436 249.881 5.83099 250.364 5.34803C250.847 4.86507 251.43 4.62598 252.114 4.62598C252.798 4.62598 253.381 4.86985 253.864 5.34803C254.347 5.83099 254.586 6.41436 254.586 7.09815ZM253.864 13.5344V32.1977H250.359V13.5344H253.864Z" fill="#676C72"/>
<path d="M266.622 32.805C263.882 32.805 261.62 31.8677 259.841 29.9885C258.063 28.1092 257.178 25.7375 257.178 22.8684C257.178 19.9994 258.039 17.6563 259.77 15.7675C261.496 13.8739 263.705 12.9319 266.397 12.9319C269.089 12.9319 271.366 13.8261 273.006 15.6192C274.641 17.4076 275.463 19.9181 275.463 23.141L275.425 23.5235H260.764C260.817 25.3502 261.424 26.8229 262.591 27.9419C263.758 29.0608 265.154 29.6155 266.78 29.6155C269.013 29.6155 270.768 28.4966 272.035 26.2635L275.157 27.7889C274.321 29.3621 273.159 30.5958 271.672 31.4852C270.184 32.3746 268.506 32.8193 266.627 32.8193L266.622 32.805ZM261.023 20.6162H271.724C271.624 19.3203 271.098 18.2492 270.141 17.3981C269.19 16.5469 267.913 16.1213 266.316 16.1213C264.996 16.1213 263.858 16.5278 262.907 17.3407C261.955 18.1536 261.324 19.2438 261.023 20.6162Z" fill="#676C72"/>
<path d="M282.158 32.1979H278.653V13.5346H282.005V16.5806H282.158C282.512 15.5907 283.243 14.7492 284.348 14.0462C285.453 13.3481 286.538 12.999 287.604 12.999C288.671 12.999 289.484 13.152 290.196 13.4581L289.13 16.8484C288.699 16.6714 288.011 16.5806 287.074 16.5806C285.754 16.5806 284.606 17.1161 283.626 18.1825C282.646 19.2488 282.158 20.4921 282.158 21.9123V32.1931V32.1979Z" fill="#676C72"/>
<path d="M306 27.0191C306 28.645 305.288 30.0173 303.867 31.1315C302.447 32.2504 300.654 32.8051 298.498 32.8051C296.618 32.8051 294.969 32.3174 293.548 31.3371C292.128 30.3616 291.11 29.0705 290.502 27.4734L293.625 26.1393C294.084 27.2582 294.749 28.1285 295.624 28.7502C296.499 29.3718 297.46 29.6826 298.498 29.6826C299.616 29.6826 300.549 29.4435 301.295 28.9605C302.046 28.4776 302.419 27.9086 302.419 27.2487C302.419 26.0532 301.505 25.1782 299.679 24.6187L296.48 23.8201C292.85 22.9068 291.033 21.1567 291.033 18.565C291.033 16.8627 291.727 15.4998 293.108 14.4718C294.49 13.4437 296.264 12.9272 298.421 12.9272C300.071 12.9272 301.563 13.3194 302.897 14.1083C304.231 14.8973 305.163 15.9493 305.694 17.2691L302.572 18.565C302.218 17.776 301.639 17.1639 300.841 16.7192C300.042 16.2745 299.148 16.0545 298.158 16.0545C297.245 16.0545 296.427 16.2841 295.7 16.7383C294.978 17.1974 294.615 17.7521 294.615 18.4119C294.615 19.4783 295.619 20.2386 297.622 20.6976L300.439 21.4197C304.145 22.333 306 24.1979 306 27.0191Z" fill="#676C72"/>
<path d="M127.386 19.6648C127.386 23.4711 126.257 26.5075 123.996 28.7693C121.456 31.4614 118.119 32.8051 113.978 32.8051C109.837 32.8051 106.666 31.4327 103.922 28.6928C101.182 25.9528 99.8093 22.5769 99.8093 18.565C99.8093 14.5531 101.182 11.1771 103.922 8.4324C106.662 5.69244 110.014 4.32007 113.978 4.32007C115.981 4.32007 117.875 4.67393 119.654 5.38641C121.433 6.09889 122.891 7.09828 124.034 8.39415L121.519 10.9094C120.682 9.89562 119.596 9.10185 118.262 8.52803C116.928 7.959 115.503 7.6721 113.978 7.6721C111.008 7.6721 108.493 8.70018 106.437 10.7563C104.405 12.8364 103.391 15.4425 103.391 18.565C103.391 21.6875 104.405 24.2888 106.437 26.3736C108.493 28.4298 111.008 29.4579 113.978 29.4579C116.694 29.4579 118.956 28.6976 120.758 27.1722C122.561 25.6468 123.603 23.5524 123.881 20.8889H113.978V17.6134H127.195C127.324 18.3259 127.386 19.0097 127.386 19.6696V19.6648Z" fill="#676C72"/>
<path d="M131.651 32.1976V4.93188H139.991C144.156 4.93188 147.498 6.18949 150.028 8.69993C152.553 11.2151 153.815 14.5002 153.815 18.5647C153.815 22.6292 152.553 25.9478 150.028 28.4487C147.503 30.9495 144.156 32.1976 139.991 32.1976H131.651ZM135.157 8.27913V28.8456H139.991C143.166 28.8456 145.667 27.937 147.494 26.1247C149.32 24.3077 150.233 21.7877 150.233 18.5647C150.233 15.3418 149.32 12.8505 147.494 11.0239C145.667 9.19723 143.166 8.28392 139.991 8.28392H135.157V8.27913Z" fill="#676C72"/>
<path d="M184.208 19.6648C184.208 23.4711 183.08 26.5075 180.818 28.7693C178.279 31.4614 174.941 32.8051 170.8 32.8051C166.659 32.8051 163.489 31.4327 160.744 28.6928C158.004 25.9528 156.632 22.5769 156.632 18.565C156.632 14.5531 158.004 11.1771 160.744 8.4324C163.484 5.69244 166.836 4.32007 170.8 4.32007C172.804 4.32007 174.697 4.67393 176.476 5.38641C178.255 6.09889 179.713 7.09828 180.856 8.39415L178.341 10.9094C177.504 9.89562 176.419 9.10185 175.084 8.52803C173.75 7.959 172.325 7.6721 170.8 7.6721C167.831 7.6721 165.315 8.70018 163.259 10.7563C161.227 12.8364 160.213 15.4425 160.213 18.565C160.213 21.6875 161.227 24.2888 163.259 26.3736C165.315 28.4298 167.831 29.4579 170.8 29.4579C173.516 29.4579 175.778 28.6976 177.581 27.1722C179.383 25.6468 180.426 23.5524 180.703 20.8889H170.8V17.6134H184.017C184.146 18.3259 184.208 19.0097 184.208 19.6696V19.6648Z" fill="#676C72"/>
<path d="M197.305 32.1976H193.422L203.703 4.93188H207.663L217.943 32.1976H214.061L211.431 24.8097H199.969L197.305 32.1976ZM205.606 9.23071L201.15 21.5342H210.216L205.759 9.23071H205.606Z" fill="#676C72"/>
<path d="M224.04 4.927V32.1927H220.535V4.927H224.04Z" fill="#676C72"/>
<path d="M236.382 41.0296C235.34 41.0296 234.364 40.8957 233.451 40.6279C232.538 40.3602 231.706 39.9872 230.955 39.5042C230.204 39.0213 229.563 38.4522 229.033 37.7923C228.497 37.1325 228.095 36.3961 227.813 35.5832L231.127 34.2108C231.51 35.301 232.169 36.1761 233.107 36.8408C234.044 37.5007 235.139 37.8306 236.382 37.8306C238.285 37.8306 239.773 37.2616 240.839 36.1187C241.905 34.9759 242.441 33.4027 242.441 31.3943V29.6059H242.288C241.628 30.5958 240.734 31.3752 239.605 31.949C238.477 32.518 237.248 32.805 235.928 32.805C233.489 32.805 231.395 31.8534 229.645 29.9502C227.918 27.9945 227.053 25.6323 227.053 22.8684C227.053 20.1046 227.914 17.7519 229.645 15.8249C231.395 13.8978 233.489 12.9319 235.928 12.9319C237.248 12.9319 238.472 13.2188 239.605 13.7878C240.734 14.3569 241.628 15.1411 242.288 16.1309H242.441V13.5392H245.793V31.3991C245.793 34.3925 244.942 36.7451 243.239 38.4427C241.513 40.1689 239.227 41.0344 236.382 41.0344V41.0296ZM236.497 29.6059C238.223 29.6059 239.634 28.9843 240.724 27.7411C241.867 26.4978 242.436 24.872 242.436 22.8684C242.436 20.8649 241.867 19.3012 240.724 18.034C239.605 16.7669 238.199 16.1309 236.497 16.1309C234.795 16.1309 233.413 16.7669 232.27 18.034C231.127 19.306 230.558 20.9175 230.558 22.8684C230.558 24.8194 231.127 26.4595 232.27 27.7076C233.413 28.9795 234.823 29.6107 236.497 29.6107V29.6059Z" fill="#676C72"/>
<path d="M254.586 7.09815C254.586 7.78195 254.342 8.37011 253.864 8.84829C253.381 9.33125 252.798 9.57034 252.114 9.57034C251.43 9.57034 250.842 9.33125 250.364 8.84829C249.881 8.36533 249.642 7.78195 249.642 7.09815C249.642 6.41436 249.881 5.83099 250.364 5.34803C250.847 4.86507 251.43 4.62598 252.114 4.62598C252.798 4.62598 253.381 4.86985 253.864 5.34803C254.347 5.83099 254.586 6.41436 254.586 7.09815ZM253.864 13.5344V32.1977H250.359V13.5344H253.864Z" fill="#676C72"/>
<path d="M266.622 32.805C263.882 32.805 261.62 31.8677 259.841 29.9885C258.063 28.1092 257.178 25.7375 257.178 22.8684C257.178 19.9994 258.039 17.6563 259.77 15.7675C261.496 13.8739 263.705 12.9319 266.397 12.9319C269.089 12.9319 271.366 13.8261 273.006 15.6192C274.641 17.4076 275.463 19.9181 275.463 23.141L275.425 23.5235H260.764C260.817 25.3502 261.424 26.8229 262.591 27.9419C263.758 29.0608 265.154 29.6155 266.78 29.6155C269.013 29.6155 270.768 28.4966 272.035 26.2635L275.157 27.7889C274.321 29.3621 273.159 30.5958 271.672 31.4852C270.184 32.3746 268.506 32.8193 266.627 32.8193L266.622 32.805ZM261.023 20.6162H271.724C271.624 19.3203 271.098 18.2492 270.141 17.3981C269.19 16.5469 267.913 16.1213 266.316 16.1213C264.996 16.1213 263.858 16.5278 262.907 17.3407C261.955 18.1536 261.324 19.2438 261.023 20.6162Z" fill="#676C72"/>
<path d="M282.158 32.1979H278.653V13.5346H282.005V16.5806H282.158C282.512 15.5907 283.243 14.7492 284.348 14.0462C285.453 13.3481 286.538 12.999 287.604 12.999C288.671 12.999 289.484 13.152 290.196 13.4581L289.13 16.8484C288.699 16.6714 288.011 16.5806 287.074 16.5806C285.754 16.5806 284.606 17.1161 283.626 18.1825C282.646 19.2488 282.158 20.4921 282.158 21.9123V32.1931V32.1979Z" fill="#676C72"/>
<path d="M306 27.0191C306 28.645 305.288 30.0173 303.867 31.1315C302.447 32.2504 300.654 32.8051 298.498 32.8051C296.618 32.8051 294.969 32.3174 293.548 31.3371C292.128 30.3616 291.11 29.0705 290.502 27.4734L293.625 26.1393C294.084 27.2582 294.749 28.1285 295.624 28.7502C296.499 29.3718 297.46 29.6826 298.498 29.6826C299.616 29.6826 300.549 29.4435 301.295 28.9605C302.046 28.4776 302.419 27.9086 302.419 27.2487C302.419 26.0532 301.505 25.1782 299.679 24.6187L296.48 23.8201C292.85 22.9068 291.033 21.1567 291.033 18.565C291.033 16.8627 291.727 15.4998 293.108 14.4718C294.49 13.4437 296.264 12.9272 298.421 12.9272C300.071 12.9272 301.563 13.3194 302.897 14.1083C304.231 14.8973 305.163 15.9493 305.694 17.2691L302.572 18.565C302.218 17.776 301.639 17.1639 300.841 16.7192C300.042 16.2745 299.148 16.0545 298.158 16.0545C297.245 16.0545 296.427 16.2841 295.7 16.7383C294.978 17.1974 294.615 17.7521 294.615 18.4119C294.615 19.4783 295.619 20.2386 297.622 20.6976L300.439 21.4197C304.145 22.333 306 24.1979 306 27.0191Z" fill="#676C72"/>
<path fill-rule="evenodd" clip-rule="evenodd" d="M25.2469 0.839043L3.33683 13.4916C0.333879 15.2226 -0.694204 19.0624 1.04158 22.0654C2.77259 25.0683 6.61235 26.0964 9.61531 24.3606L31.5254 11.7128C34.5284 9.9818 35.5565 6.14203 33.8207 3.13908C32.0897 0.13612 28.2499 -0.891956 25.2469 0.843829V0.839043Z" fill="#EA4334"/>
<path fill-rule="evenodd" clip-rule="evenodd" d="M31.3245 26.2397L9.41439 13.5919C6.41143 11.8609 2.57644 12.889 0.840659 15.8871C-0.890344 18.8901 0.137738 22.7251 3.13591 24.4609L25.046 37.1087C28.049 38.8397 31.884 37.8116 33.6197 34.8134C35.3507 31.8105 34.3227 27.9755 31.3245 26.2397Z" fill="#4285F4"/>
<path fill-rule="evenodd" clip-rule="evenodd" d="M45.9761 26.4406L67.8862 13.7928C70.8892 12.0618 74.7242 13.0899 76.46 16.0881C78.191 19.091 77.1629 22.926 74.1647 24.6618L52.2546 37.3096C49.2516 39.0406 45.4167 38.0125 43.6809 35.0143C41.9499 32.0114 42.9779 28.1764 45.9761 26.4406Z" fill="#FCBC05"/>
<path fill-rule="evenodd" clip-rule="evenodd" d="M52.4503 1.03987L74.3604 13.6877C77.3633 15.4187 78.3914 19.2584 76.6556 22.2614C74.9246 25.2644 71.0849 26.2924 68.0819 24.5567L46.1718 11.9089C43.1688 10.1779 42.1408 6.33808 43.8765 3.33513C45.6075 0.332171 49.4473 -0.695913 52.4503 1.03987Z" fill="#0D9D58"/>
</svg>
