<svg width="36" height="35" viewBox="0 0 36 35" fill="none" xmlns="http://www.w3.org/2000/svg">
<path d="M18 26.6144C17.3959 26.6144 16.9062 27.1041 16.9062 27.7082C16.9062 28.3122 17.3959 28.8019 18 28.8019H26.75C28.1595 28.8019 29.3021 27.6593 29.3021 26.2498V8.74984C29.3021 7.34036 28.1595 6.19775 26.75 6.19775H18C17.3959 6.19775 16.9062 6.68744 16.9062 7.29151C16.9062 7.89557 17.3959 8.38526 18 8.38526L26.75 8.38525C26.9513 8.38525 27.1146 8.54848 27.1146 8.74984V26.2498C27.1146 26.4512 26.9513 26.6144 26.75 26.6144H18Z" fill="#EA4334"/>
<path fill-rule="evenodd" clip-rule="evenodd" d="M21.6503 20.9491C22.6571 20.9491 23.4732 20.133 23.4732 19.1262V15.8588C23.4732 14.852 22.6571 14.0359 21.6503 14.0359L14.9236 14.0359C14.9141 13.9288 14.9041 13.8217 14.8937 13.7147L14.8149 12.904C14.6947 11.6672 13.3813 10.9265 12.2607 11.4636C9.87748 12.6057 7.71997 14.1687 5.89196 16.0773L5.74729 16.2283C5.07032 16.9351 5.07032 18.0498 5.74729 18.7566L5.89196 18.9077C7.71997 20.8163 9.87748 22.3792 12.2607 23.5214C13.3813 24.0584 14.6947 23.3177 14.8149 22.0809L14.8937 21.2702C14.9041 21.1632 14.9141 21.0562 14.9236 20.9491H21.6503ZM13.9095 18.7616C13.5211 18.7616 13.1776 18.9647 12.9834 19.2731C12.8889 19.4233 12.8297 19.5985 12.8179 19.7873C12.7914 20.2115 12.7576 20.6353 12.7165 21.0586L12.6936 21.2939C11.1827 20.5153 9.77959 19.5456 8.51845 18.4097C8.19126 18.115 7.87363 17.8091 7.56615 17.4925C9.05882 15.9553 10.7907 14.6717 12.6936 13.691L12.7165 13.9263C12.7576 14.3496 12.7914 14.7735 12.8179 15.1977C12.8538 15.7742 13.3319 16.2234 13.9095 16.2234H21.2857V18.7616H13.9095Z" fill="#EA4334"/>
</svg>
