<svg width="121" height="31" viewBox="0 0 121 31" fill="none" xmlns="http://www.w3.org/2000/svg">
<path d="M48.4751 14.3451V15.381C48.4751 16.6121 48.3212 17.7156 48.0134 18.6914C47.7056 19.6673 47.2627 20.4968 46.6847 21.1799C46.1067 21.863 45.4124 22.3847 44.6017 22.745C43.7985 23.1053 42.8977 23.2855 41.8993 23.2855C40.9309 23.2855 40.0414 23.1053 39.2307 22.745C38.4275 22.3847 37.7294 21.863 37.1364 21.1799C36.5508 20.4968 36.0967 19.6673 35.7739 18.6914C35.4511 17.7156 35.2897 16.6121 35.2897 15.381V14.3451C35.2897 13.114 35.4474 12.0143 35.7626 11.046C36.0854 10.0701 36.5396 9.24063 37.1251 8.55753C37.7106 7.86693 38.405 7.34146 39.2082 6.98115C40.0189 6.62083 40.9084 6.44067 41.8768 6.44067C42.8751 6.44067 43.7759 6.62083 44.5791 6.98115C45.3899 7.34146 46.0842 7.86693 46.6622 8.55753C47.2477 9.24063 47.6944 10.0701 48.0021 11.046C48.3174 12.0143 48.4751 13.114 48.4751 14.3451ZM46.3244 15.381V14.3226C46.3244 13.3467 46.2231 12.4835 46.0204 11.7328C45.8252 10.9822 45.5362 10.3516 45.1534 9.84116C44.7706 9.33071 44.3014 8.94412 43.7459 8.68139C43.1979 8.41866 42.5749 8.2873 41.8768 8.2873C41.2012 8.2873 40.5894 8.41866 40.0414 8.68139C39.5009 8.94412 39.0355 9.33071 38.6452 9.84116C38.2623 10.3516 37.9658 10.9822 37.7556 11.7328C37.5455 12.4835 37.4404 13.3467 37.4404 14.3226V15.381C37.4404 16.3644 37.5455 17.2352 37.7556 17.9933C37.9658 18.744 38.2661 19.3783 38.6564 19.8962C39.0543 20.4067 39.5235 20.7933 40.0639 21.056C40.6119 21.3187 41.2237 21.4501 41.8993 21.4501C42.6049 21.4501 43.2317 21.3187 43.7797 21.056C44.3277 20.7933 44.7893 20.4067 45.1647 19.8962C45.5475 19.3783 45.8365 18.744 46.0317 17.9933C46.2268 17.2352 46.3244 16.3644 46.3244 15.381Z" fill="#27187E"/>
<path d="M53.497 13.4781V23.0603H51.4139V10.8771H53.3844L53.497 13.4781ZM53.0015 16.507L52.1345 16.4732C52.142 15.64 52.2659 14.8706 52.5061 14.165C52.7463 13.4518 53.0841 12.8325 53.5195 12.3071C53.9549 11.7816 54.4728 11.3763 55.0734 11.091C55.6814 10.7983 56.3532 10.6519 57.0889 10.6519C57.6894 10.6519 58.2299 10.7344 58.7103 10.8996C59.1907 11.0572 59.5998 11.3125 59.9376 11.6653C60.2829 12.0181 60.5457 12.476 60.7258 13.039C60.906 13.5945 60.9961 14.2738 60.9961 15.077V23.0603H58.9017V15.0545C58.9017 14.4164 58.8079 13.906 58.6202 13.5231C58.4326 13.1328 58.1586 12.8513 57.7982 12.6787C57.4379 12.4985 56.995 12.4084 56.4696 12.4084C55.9516 12.4084 55.4787 12.5173 55.0508 12.735C54.6305 12.9526 54.2664 13.2529 53.9586 13.6357C53.6584 14.0186 53.4219 14.4577 53.2493 14.9531C53.0841 15.4411 53.0015 15.959 53.0015 16.507Z" fill="#27187E"/>
<path d="M69.2158 23.2855C68.3675 23.2855 67.5981 23.1428 66.9075 22.8576C66.2244 22.5648 65.6351 22.1557 65.1397 21.6303C64.6518 21.1048 64.2764 20.4818 64.0137 19.7611C63.751 19.0405 63.6196 18.2523 63.6196 17.3965V16.9236C63.6196 15.9328 63.766 15.0507 64.0587 14.2776C64.3515 13.4969 64.7494 12.8363 65.2523 12.2958C65.7552 11.7553 66.3257 11.3462 66.9638 11.0685C67.6019 10.7907 68.2624 10.6519 68.9455 10.6519C69.8163 10.6519 70.567 10.802 71.1975 11.1023C71.8356 11.4025 72.3573 11.8229 72.7626 12.3634C73.168 12.8963 73.4683 13.5269 73.6634 14.255C73.8586 14.9757 73.9562 15.7639 73.9562 16.6196V17.5542H64.8582V15.8539H71.8731V15.6963C71.8431 15.1558 71.7305 14.6304 71.5353 14.1199C71.3476 13.6095 71.0474 13.1891 70.6345 12.8588C70.2217 12.5285 69.6587 12.3634 68.9455 12.3634C68.4726 12.3634 68.0372 12.4647 67.6394 12.6674C67.2415 12.8626 66.9 13.1553 66.6147 13.5457C66.3295 13.936 66.108 14.4127 65.9504 14.9757C65.7928 15.5387 65.7139 16.188 65.7139 16.9236V17.3965C65.7139 17.9746 65.7928 18.5188 65.9504 19.0292C66.1156 19.5322 66.352 19.9751 66.6598 20.3579C66.9751 20.7407 67.3541 21.041 67.797 21.2587C68.2474 21.4764 68.7579 21.5852 69.3284 21.5852C70.064 21.5852 70.6871 21.4351 71.1975 21.1348C71.708 20.8346 72.1546 20.433 72.5374 19.93L73.7985 20.9321C73.5358 21.33 73.2018 21.7091 72.7964 22.0694C72.3911 22.4297 71.8919 22.7225 71.2989 22.9477C70.7133 23.1729 70.019 23.2855 69.2158 23.2855Z" fill="#27187E"/>
<path d="M82.7502 16.6309H78.3701V14.8631H82.7502C83.5984 14.8631 84.2853 14.728 84.8107 14.4577C85.3362 14.1875 85.719 13.8121 85.9592 13.3317C86.2069 12.8513 86.3308 12.3033 86.3308 11.6878C86.3308 11.1248 86.2069 10.5956 85.9592 10.1001C85.719 9.6047 85.3362 9.20685 84.8107 8.90659C84.2853 8.59882 83.5984 8.44493 82.7502 8.44493H78.8768V23.0603H76.7036V6.66587H82.7502C83.9887 6.66587 85.0359 6.87981 85.8917 7.30769C86.7474 7.73556 87.3967 8.32858 87.8396 9.08675C88.2825 9.83741 88.504 10.6969 88.504 11.6653C88.504 12.7162 88.2825 13.6132 87.8396 14.3564C87.3967 15.0995 86.7474 15.6663 85.8917 16.0566C85.0359 16.4395 83.9887 16.6309 82.7502 16.6309Z" fill="#27187E"/>
<path d="M90.2267 17.1038V16.8448C90.2267 15.9665 90.3543 15.1521 90.6096 14.4014C90.8648 13.6432 91.2326 12.9864 91.713 12.4309C92.1935 11.8679 92.7752 11.4326 93.4583 11.1248C94.1414 10.8095 94.9071 10.6519 95.7553 10.6519C96.6111 10.6519 97.3805 10.8095 98.0636 11.1248C98.7542 11.4326 99.3397 11.8679 99.8201 12.4309C100.308 12.9864 100.68 13.6432 100.935 14.4014C101.19 15.1521 101.318 15.9665 101.318 16.8448V17.1038C101.318 17.9821 101.19 18.7965 100.935 19.5472C100.68 20.2978 100.308 20.9547 99.8201 21.5177C99.3397 22.0732 98.758 22.5085 98.0749 22.8238C97.3993 23.1316 96.6336 23.2855 95.7778 23.2855C94.9221 23.2855 94.1527 23.1316 93.4696 22.8238C92.7865 22.5085 92.201 22.0732 91.713 21.5177C91.2326 20.9547 90.8648 20.2978 90.6096 19.5472C90.3543 18.7965 90.2267 17.9821 90.2267 17.1038ZM92.3098 16.8448V17.1038C92.3098 17.7118 92.3811 18.2861 92.5237 18.8265C92.6664 19.3595 92.8803 19.8324 93.1656 20.2453C93.4583 20.6582 93.8224 20.9847 94.2578 21.2249C94.6931 21.4576 95.1998 21.574 95.7778 21.574C96.3484 21.574 96.8475 21.4576 97.2754 21.2249C97.7108 20.9847 98.0711 20.6582 98.3564 20.2453C98.6416 19.8324 98.8555 19.3595 98.9982 18.8265C99.1483 18.2861 99.2234 17.7118 99.2234 17.1038V16.8448C99.2234 16.2443 99.1483 15.6775 98.9982 15.1446C98.8555 14.6041 98.6379 14.1274 98.3451 13.7146C98.0599 13.2942 97.6995 12.9639 97.2642 12.7237C96.8363 12.4835 96.3333 12.3634 95.7553 12.3634C95.1848 12.3634 94.6819 12.4835 94.2465 12.7237C93.8186 12.9639 93.4583 13.2942 93.1656 13.7146C92.8803 14.1274 92.6664 14.6041 92.5237 15.1446C92.3811 15.6775 92.3098 16.2443 92.3098 16.8448Z" fill="#27187E"/>
<path d="M111.024 19.8287C111.024 19.5284 110.956 19.2507 110.821 18.9954C110.693 18.7327 110.427 18.4963 110.022 18.2861C109.624 18.0684 109.023 17.8807 108.22 17.7231C107.544 17.5805 106.933 17.4116 106.385 17.2164C105.844 17.0212 105.383 16.7848 105 16.507C104.624 16.2293 104.335 15.9027 104.133 15.5274C103.93 15.1521 103.829 14.7129 103.829 14.21C103.829 13.7296 103.934 13.2754 104.144 12.8475C104.362 12.4197 104.666 12.0406 105.056 11.7103C105.454 11.38 105.931 11.121 106.486 10.9334C107.041 10.7457 107.661 10.6519 108.344 10.6519C109.32 10.6519 110.153 10.8245 110.844 11.1698C111.534 11.5151 112.063 11.9768 112.431 12.5548C112.799 13.1253 112.983 13.7596 112.983 14.4577H110.9C110.9 14.1199 110.799 13.7934 110.596 13.4781C110.401 13.1553 110.112 12.8888 109.729 12.6787C109.354 12.4685 108.892 12.3634 108.344 12.3634C107.766 12.3634 107.297 12.4535 106.936 12.6336C106.584 12.8063 106.325 13.0277 106.159 13.2979C106.002 13.5682 105.923 13.8534 105.923 14.1537C105.923 14.3789 105.961 14.5816 106.036 14.7617C106.118 14.9344 106.261 15.0958 106.463 15.2459C106.666 15.3885 106.951 15.5236 107.319 15.6513C107.687 15.7789 108.156 15.9065 108.727 16.0341C109.725 16.2593 110.547 16.5295 111.193 16.8448C111.838 17.1601 112.319 17.5467 112.634 18.0046C112.949 18.4625 113.107 19.018 113.107 19.671C113.107 20.204 112.994 20.6919 112.769 21.1348C112.551 21.5777 112.232 21.9606 111.812 22.2833C111.399 22.5986 110.904 22.8463 110.326 23.0265C109.755 23.1991 109.113 23.2855 108.4 23.2855C107.327 23.2855 106.418 23.094 105.675 22.7112C104.932 22.3284 104.369 21.8329 103.986 21.2249C103.603 20.6169 103.412 19.9751 103.412 19.2995H105.506C105.536 19.87 105.702 20.3241 106.002 20.6619C106.302 20.9922 106.67 21.2287 107.105 21.3713C107.541 21.5064 107.972 21.574 108.4 21.574C108.971 21.574 109.447 21.4989 109.83 21.3488C110.221 21.1986 110.517 20.9922 110.72 20.7295C110.922 20.4667 111.024 20.1665 111.024 19.8287Z" fill="#27187E"/>
<path d="M120.944 10.8771V12.476H114.357V10.8771H120.944ZM116.586 7.91572H118.669V20.0426C118.669 20.4555 118.733 20.767 118.861 20.9772C118.988 21.1874 119.153 21.3262 119.356 21.3938C119.559 21.4614 119.776 21.4951 120.009 21.4951C120.182 21.4951 120.362 21.4801 120.55 21.4501C120.745 21.4126 120.891 21.3825 120.989 21.36L121 23.0603C120.835 23.1128 120.617 23.1616 120.347 23.2066C120.084 23.2592 119.765 23.2855 119.39 23.2855C118.879 23.2855 118.41 23.1841 117.982 22.9814C117.554 22.7788 117.213 22.441 116.958 21.9681C116.71 21.4876 116.586 20.8421 116.586 20.0314V7.91572Z" fill="#27187E"/>
<path d="M2.06385 8.78641H0.922731C0.795413 8.78641 0.692383 8.68338 0.692383 8.55607V7.41467C0.692383 7.28735 0.795413 7.18433 0.922731 7.18433H2.06385C2.19117 7.18433 2.29419 7.28735 2.29419 7.41467V8.55607C2.29419 8.68338 2.19117 8.78641 2.06385 8.78641Z" fill="#92A4FF"/>
<path d="M6.15397 7.64917H3.54061C3.24939 7.64917 3.01318 7.41296 3.01318 7.12175V4.50838C3.01318 4.21717 3.24939 3.98096 3.54061 3.98096H6.15397C6.44518 3.98096 6.6814 4.21717 6.6814 4.50838V7.12175C6.6814 7.41296 6.44518 7.64917 6.15397 7.64917Z" fill="#92A4FF"/>
<path d="M4.60718 12.5731H2.43411C2.19176 12.5731 1.99548 12.3768 1.99548 12.1344V9.96109C1.99548 9.71874 2.19176 9.52246 2.43411 9.52246H4.60718C4.84953 9.52246 5.04581 9.71874 5.04581 9.96109V12.1342C5.04581 12.3765 4.84953 12.5731 4.60718 12.5731Z" fill="#92A4FF"/>
<path d="M28.9589 24.5674H30.1C30.2273 24.5674 30.3303 24.4644 30.3303 24.337V23.1959C30.3303 23.0686 30.2273 22.9656 30.1 22.9656H28.9589C28.8315 22.9656 28.7285 23.0686 28.7285 23.1959V24.337C28.7285 24.4641 28.8318 24.5674 28.9589 24.5674Z" fill="#8190DE"/>
<path d="M24.7426 24.8779H27.3559C27.6472 24.8779 27.8834 24.6417 27.8834 24.3505V21.7371C27.8834 21.4459 27.6472 21.2097 27.3559 21.2097H24.7426C24.4514 21.2097 24.2151 21.4459 24.2151 21.7371V24.3505C24.2149 24.642 24.4511 24.8779 24.7426 24.8779Z" fill="#8190DE"/>
<path d="M27.0932 28.7293H29.2663C29.5086 28.7293 29.7049 28.533 29.7049 28.2907V26.1176C29.7049 25.8752 29.5086 25.679 29.2663 25.679H27.0932C26.8509 25.679 26.6546 25.8752 26.6546 26.1176V28.2907C26.6546 28.533 26.8509 28.7293 27.0932 28.7293Z" fill="#8190DE"/>
<path d="M28.6288 17.4918C29.7987 10.171 24.8124 3.28808 17.4917 2.11825C10.1709 0.948417 3.288 5.9347 2.11817 13.2554C0.948336 20.5761 5.93461 27.4591 13.2553 28.6289C20.576 29.7987 27.459 24.8125 28.6288 17.4918Z" fill="#92A4FF"/>
<mask id="mask0_25_2013" style="mask-type:luminance" maskUnits="userSpaceOnUse" x="1" y="1" width="28" height="28">
<path d="M28.6288 17.4918C29.7987 10.171 24.8124 3.28808 17.4917 2.11825C10.1709 0.948418 3.288 5.9347 2.11817 13.2554C0.948336 20.5761 5.93461 27.4591 13.2553 28.6289C20.576 29.7987 27.459 24.8125 28.6288 17.4918Z" fill="white"/>
</mask>
<g mask="url(#mask0_25_2013)">
<path d="M20.0885 7.64258L35.0788 22.6329L22.6053 35.1064L10.5587 23.0598L5.55585 14.6227L10.653 7.64258L15.8055 12.7951L18.7291 7.64258L20.6305 9.54369L20.0885 7.64258Z" fill="#8190DE"/>
</g>
<path d="M10.6572 22.9651L4.08215 15.304L10.6572 7.64258V10.5773L6.60115 15.304L10.6572 20.0307V22.9651Z" fill="#27187E"/>
<path d="M20.0922 22.9651L26.6673 15.304L20.0922 7.64258V10.5773L24.1483 15.304L20.0922 20.0307V22.9651Z" fill="#27187E"/>
<path d="M16.6697 7.64258L12.0165 22.9651H14.0801L18.7333 7.64258H16.6697Z" fill="#27187E"/>
</svg>
