<svg xmlns="http://www.w3.org/2000/svg" width="31" height="31" viewBox="0 0 31 31" fill="none">
  <path d="M2.06385 8.78666H0.922731C0.795413 8.78666 0.692383 8.68363 0.692383 8.55631V7.41491C0.692383 7.2876 0.795413 7.18457 0.922731 7.18457H2.06385C2.19117 7.18457 2.29419 7.2876 2.29419 7.41491V8.55631C2.29419 8.68363 2.19117 8.78666 2.06385 8.78666Z" fill="#92A4FF"/>
  <path d="M6.15397 7.64917H3.54061C3.24939 7.64917 3.01318 7.41296 3.01318 7.12175V4.50838C3.01318 4.21717 3.24939 3.98096 3.54061 3.98096H6.15397C6.44518 3.98096 6.6814 4.21717 6.6814 4.50838V7.12175C6.6814 7.41296 6.44518 7.64917 6.15397 7.64917Z" fill="#92A4FF"/>
  <path d="M4.6073 12.5731H2.43423C2.19188 12.5731 1.99561 12.3768 1.99561 12.1344V9.96109C1.99561 9.71874 2.19188 9.52246 2.43423 9.52246H4.6073C4.84965 9.52246 5.04593 9.71874 5.04593 9.96109V12.1342C5.04593 12.3765 4.84965 12.5731 4.6073 12.5731Z" fill="#92A4FF"/>
  <path d="M28.9589 24.5671H30.1C30.2273 24.5671 30.3303 24.4641 30.3303 24.3368V23.1957C30.3303 23.0684 30.2273 22.9653 30.1 22.9653H28.9589C28.8315 22.9653 28.7285 23.0684 28.7285 23.1957V24.3368C28.7285 24.4638 28.8318 24.5671 28.9589 24.5671Z" fill="#8190DE"/>
  <path d="M24.7423 24.8782H27.3556C27.6468 24.8782 27.8831 24.642 27.8831 24.3508V21.7374C27.8831 21.4462 27.6468 21.21 27.3556 21.21H24.7423C24.451 21.21 24.2148 21.4462 24.2148 21.7374V24.3508C24.2146 24.6422 24.4508 24.8782 24.7423 24.8782Z" fill="#8190DE"/>
  <path d="M27.0929 28.729H29.266C29.5083 28.729 29.7046 28.5328 29.7046 28.2904V26.1173C29.7046 25.875 29.5083 25.6787 29.266 25.6787H27.0929C26.8506 25.6787 26.6543 25.875 26.6543 26.1173V28.2904C26.6543 28.5328 26.8506 28.729 27.0929 28.729Z" fill="#8190DE"/>
  <path d="M28.6288 17.4918C29.7987 10.171 24.8124 3.28808 17.4917 2.11825C10.1709 0.948417 3.288 5.9347 2.11817 13.2554C0.948336 20.5761 5.93461 27.4591 13.2553 28.6289C20.576 29.7987 27.459 24.8125 28.6288 17.4918Z" fill="#92A4FF"/>
  <mask id="mask0_208_1842" style="mask-type:luminance" maskUnits="userSpaceOnUse" x="1" y="1" width="28" height="28">
    <path d="M28.6288 17.4918C29.7987 10.171 24.8124 3.28808 17.4917 2.11825C10.1709 0.948418 3.288 5.9347 2.11817 13.2554C0.948336 20.5761 5.93461 27.4591 13.2553 28.6289C20.576 29.7987 27.459 24.8125 28.6288 17.4918Z" fill="white"/>
  </mask>
  <g mask="url(#mask0_208_1842)">
    <path d="M20.0884 7.64258L35.0787 22.6329L22.6051 35.1064L10.5585 23.0598L5.55566 14.6227L10.6529 7.64258L15.8053 12.7951L18.7289 7.64258L20.6303 9.54369L20.0884 7.64258Z" fill="#8190DE"/>
  </g>
  <path d="M10.6571 22.9651L4.08203 15.304L10.6571 7.64258V10.5773L6.60103 15.304L10.6571 20.0307V22.9651Z" fill="#27187E"/>
  <path d="M20.0918 22.9651L26.6668 15.304L20.0918 7.64258V10.5773L24.1478 15.304L20.0918 20.0307V22.9651Z" fill="#27187E"/>
  <path d="M16.6699 7.64258L12.0166 22.9651H14.0802L18.7335 7.64258H16.6699Z" fill="#27187E"/>
</svg>