<svg width="437" height="515" viewBox="0 0 437 515" fill="none" xmlns="http://www.w3.org/2000/svg">
<g opacity="0.3">
<path d="M342.51 66.1317C342.039 66.1317 341.59 65.9117 341.31 65.5317C339.43 63.0017 336.17 61.5517 332.35 61.5517H332.329C330.05 61.5517 327.779 62.0817 325.75 63.0817C325.75 63.0817 325.739 63.0817 325.739 63.0917C325.01 63.4517 324.09 63.1317 323.729 62.4017C323.549 62.0417 323.529 61.6417 323.659 61.2617C323.779 60.8817 324.05 60.5717 324.409 60.3917C326.859 59.1917 329.599 58.5517 332.349 58.5517C336.099 58.5517 339.519 59.7417 341.999 61.8917C344.459 57.0717 349.408 54.5517 356.379 54.6417C357.139 54.6417 357.899 54.6717 358.649 54.7207C359.049 54.7407 359.42 54.9207 359.679 55.2307C359.948 55.5307 360.078 55.9107 360.049 56.3107C359.999 57.1307 359.278 57.7707 358.459 57.7107C357.738 57.6607 357.038 57.6407 356.379 57.6407C349.318 57.7407 345.709 59.9007 343.939 65.0907C343.769 65.6207 343.299 66.0207 342.759 66.1107C342.68 66.1217 342.59 66.1317 342.51 66.1317Z" fill="#27187E"/>
<path d="M422.199 74.6216C421.729 74.6216 421.279 74.3916 421 74.0216C419.539 72.0416 416.97 70.9116 413.96 70.9116C412.14 70.9116 410.34 71.3316 408.739 72.1216C408.729 72.1216 408.729 72.1216 408.729 72.1216C408 72.4816 407.069 72.1616 406.719 71.4416C406.538 71.0816 406.509 70.6716 406.639 70.2916C406.769 69.9116 407.038 69.6116 407.399 69.4316C409.42 68.4316 411.689 67.9116 413.959 67.9116C416.929 67.9116 419.669 68.8116 421.698 70.4616C422.698 68.6516 424.148 67.2516 426.028 66.2716C428.078 65.2116 430.588 64.6916 433.459 64.7316C434.068 64.7316 434.698 64.7616 435.318 64.8016C435.718 64.8216 436.078 65.0016 436.348 65.3016C436.608 65.6116 436.738 65.9916 436.718 66.3916C436.657 67.2116 435.928 67.8516 435.117 67.7916C434.557 67.7516 433.998 67.7316 433.458 67.7316C426.947 67.8516 424.817 70.1516 423.628 73.5816C423.458 74.1216 423.008 74.5116 422.447 74.6016C422.369 74.6116 422.289 74.6216 422.199 74.6216Z" fill="#27187E"/>
<path d="M272.96 24.9018C272.489 24.9018 272.039 24.6718 271.76 24.2918C268.77 20.2718 263.6 17.9618 257.57 17.9618C253.99 17.9618 250.41 18.8018 247.23 20.3718C246.5 20.7318 245.58 20.4118 245.22 19.6818C245.05 19.3218 245.02 18.9218 245.15 18.5418C245.28 18.1618 245.55 17.8518 245.91 17.6818C249.501 15.9018 253.53 14.9718 257.57 14.9718C263.501 14.9718 268.78 16.9418 272.44 20.5318C274.07 16.8718 276.63 14.0418 280.04 12.1118C283.721 10.0318 288.4 9.00179 293.961 9.05179C295.07 9.05179 296.221 9.08179 297.351 9.16179C297.751 9.18179 298.121 9.36178 298.381 9.67178C298.641 9.97178 298.771 10.3518 298.751 10.7518C298.69 11.5718 297.961 12.2018 297.15 12.1518C296.05 12.0818 294.97 12.0418 293.96 12.0418C282.98 12.1418 277.119 15.6718 274.39 23.8618C274.22 24.3918 273.76 24.7918 273.21 24.8818C273.13 24.8918 273.039 24.9018 272.96 24.9018Z" fill="#27187E"/>
<path d="M61.02 11.4919C60.55 11.4919 60.1 11.2719 59.81 10.8919C57.95 8.37185 54.68 6.92186 50.86 6.91186C48.57 6.91186 46.281 7.44186 44.25 8.45186C43.52 8.81186 42.6 8.49186 42.24 7.77186C41.87 7.02186 42.18 6.12186 42.92 5.76186C45.37 4.55186 48.11 3.92186 50.86 3.91186C54.6 3.91186 58.031 5.10185 60.51 7.25185C62.97 2.43185 67.93 -0.0781457 74.89 0.00185431C75.62 0.00185431 76.39 0.0318561 77.16 0.0818561C77.99 0.131856 78.61 0.851855 78.56 1.68185C78.51 2.49185 77.79 3.13185 76.97 3.07185C76.26 3.03185 75.56 3.00185 74.89 3.00185C67.83 3.10185 64.22 5.26185 62.45 10.4619C62.27 10.9919 61.82 11.3819 61.26 11.4819C61.18 11.4919 61.11 11.4919 61.02 11.4919Z" fill="#27187E"/>
<path d="M148.32 41.2417C147.841 41.2417 147.39 41.0217 147.11 40.6417C145.94 39.0517 143.87 38.1417 141.42 38.1417C139.95 38.1417 138.43 38.4917 137.14 39.1217C137.14 39.1317 137.13 39.1317 137.13 39.1317C136.4 39.4817 135.48 39.1617 135.12 38.4417C134.95 38.0817 134.92 37.6717 135.05 37.3017C135.18 36.9217 135.45 36.6117 135.81 36.4317C137.54 35.5917 139.48 35.1427 141.42 35.1427C143.84 35.1427 146.11 35.8527 147.82 37.1527C149.671 34.0627 153.18 32.3827 157.79 32.4827C158.271 32.4827 158.79 32.4927 159.311 32.5327C159.711 32.5527 160.081 32.7327 160.341 33.0327C160.611 33.3327 160.74 33.7227 160.721 34.1227C160.66 34.9427 159.95 35.5727 159.131 35.5227C158.691 35.4927 158.24 35.4827 157.79 35.4827C152.45 35.5927 150.751 37.3727 149.74 40.2127C149.57 40.7427 149.11 41.1327 148.56 41.2327C148.48 41.2417 148.4 41.2417 148.32 41.2417Z" fill="#27187E"/>
<path d="M240.143 458.075L279.056 454.64C218.908 401.255 188.751 353.276 176.916 278.766V279.424C176.592 276.638 176.105 273.856 175.776 271.074L176.105 273.526C171.241 239.142 169.944 199.022 171.241 150.389L171.079 151.697C162.643 190.012 158.109 228.167 158.434 265.829V266.159V267.963C159.406 341.323 178.049 413.698 219.555 483.947H239.17C239.332 475.597 239.981 466.426 240.143 458.075Z" fill="#617BFF"/>
<path d="M271.756 483.948C290.076 483.948 308.558 483.948 326.878 483.948C326.878 474.291 326.878 464.628 326.878 454.964C215.337 402.562 173.346 298.422 171.079 164.634V164.964C168.643 312.832 192.8 378.165 279.056 454.641L259.435 456.278C252.951 456.931 246.304 457.585 240.143 458.076C250.682 466.757 261.222 475.436 271.756 483.948Z" fill="#92A4FF"/>
<path d="M171.079 151.698C172.213 137.946 174.642 126.479 178.049 112.561C179.345 106.176 180.642 99.9537 181.943 93.5647C177.564 100.446 173.023 107.321 168.482 114.197C155.027 177.245 152.434 232.262 145.95 290.395C152.111 330.353 162.644 361.296 176.268 386.024V385.862C153.082 309.229 153.569 230.955 171.079 151.698Z" fill="#92A4FF"/>
<path d="M176.916 279.425V278.114C176.592 275.824 176.105 273.366 175.776 271.076C176.106 273.856 176.592 276.639 176.916 279.425Z" fill="#92A4FF"/>
<path d="M126.815 132.049L132.489 118.129H159.244L164.919 132.049C155.19 183.63 152.273 230.464 147.246 278.767H144.649C139.466 230.464 136.545 183.792 126.815 132.211V132.049Z" fill="#27187E"/>
<path d="M132.489 118.129H159.243L164.918 132.049L159.243 146.621H132.489L126.815 132.049L132.489 118.129Z" fill="#6D84FF"/>
<path d="M145.949 153.826C148.055 153.826 149.513 155.63 149.837 157.758L155.836 193.946L136.058 193.784L142.058 157.758C142.381 155.63 143.839 153.826 145.949 153.826Z" fill="#8699FF"/>
<path d="M145.949 290.396C144.001 302.841 141.57 314.793 138.811 325.6C138.811 378.332 138.811 431.383 138.811 483.949H161.025L161.187 455.949H170.916V483.949H187.125C194.749 463.646 190.208 440.065 187.125 417.465C183.076 406.987 179.344 396.509 176.267 385.864C176.267 386.026 176.267 386.026 176.267 386.026C162.644 361.297 152.111 330.354 145.949 290.396Z" fill="#617BFF"/>
<path d="M145.949 290.396C147.892 302.841 150.485 315.453 153.244 326.421C153.244 378.985 153.406 431.383 153.406 483.948H131.193L130.869 455.948H121.14L121.307 483.948H105.093C97.636 463.645 101.847 440.064 104.931 417.464C108.98 406.986 112.549 396.508 115.794 385.863C115.794 386.025 115.794 386.025 115.794 386.025C129.412 361.297 139.789 330.354 145.949 290.396Z" fill="#92A4FF"/>
<path d="M-52.009 483.948H341.473V495.576H212.261L204.96 483.948H187.941L195.073 495.576H94.391L101.524 483.948H84.337L77.204 495.576H-52.009V483.948Z" fill="#617BFF"/>
<path d="M-65.788 507.2H69.91L77.204 495.576H-65.788V507.2Z" fill="#617BFF"/>
<path d="M87.096 507.2H202.368L195.073 495.576H94.391L87.096 507.2Z" fill="#92A4FF"/>
<path d="M219.555 507.2H355.251V495.576H212.261L219.555 507.2Z" fill="#617BFF"/>
<path d="M-81.192 507.2H69.91L62.778 518.828H-81.192V507.2Z" fill="#8699FF"/>
<path d="M87.096 507.2H202.368L209.501 518.828H79.963L87.096 507.2Z" fill="#8699FF"/>
<path d="M219.555 507.2H370.656V518.828H226.688L219.555 507.2Z" fill="#8699FF"/>
<path d="M101.524 483.948H84.337L55.483 530.457H72.664L101.524 483.948Z" fill="#617BFF"/>
<path d="M187.941 483.948H204.96L233.982 530.457H216.795L187.941 483.948Z" fill="#617BFF"/>
<path d="M178.049 112.562C185.019 113.706 191.667 114.857 198.638 116.002C194.588 185.267 192.153 254.207 198.799 320.032L198.314 318.887V318.725C197.664 317.249 197.18 315.943 196.694 314.63V314.468L196.207 313.318C195.722 312.172 195.398 311.028 194.912 310.045L194.589 308.9L194.427 308.57C193.936 307.095 193.449 305.789 192.963 304.476V304.314L192.477 303.169C191.992 301.694 191.505 300.22 191.02 298.745V298.421C190.534 296.946 190.048 295.472 189.563 293.997L189.238 292.852C186.641 284.335 184.212 275.493 182.267 266.49L181.944 265.339C181.614 263.702 181.291 262.067 180.967 260.43L180.643 259.117C180.481 257.81 180.156 256.665 179.994 255.352L179.671 254.206V254.044C179.347 252.569 179.023 250.934 178.861 249.291L178.699 248.8C178.375 247.331 178.213 245.689 177.889 244.053C173.348 216.544 171.081 187.232 170.919 156.445C172.049 141.873 174.481 127.301 178.049 112.562Z" fill="#92A4FF"/>
<path d="M51.751 458.075L12.844 454.64C72.993 401.255 102.981 353.276 114.817 278.766V279.424C115.309 276.638 115.632 273.856 116.119 271.074L115.633 273.526C120.655 239.142 121.956 199.022 120.655 150.389L120.817 151.697C129.252 190.012 133.63 228.167 133.467 265.829V266.159V267.963C132.489 341.323 113.684 413.698 72.341 483.947H52.725C52.562 475.597 51.913 466.426 51.751 458.075Z" fill="#617BFF"/>
<path d="M20.139 483.948C1.65701 483.948 -16.664 483.948 -35.146 483.948C-35.146 474.291 -35.146 464.628 -35.146 454.964C76.395 402.563 118.386 298.422 120.816 164.634V164.964C123.251 312.832 98.933 378.165 12.844 454.641L32.298 456.278C38.944 456.931 45.592 457.585 51.751 458.076C41.212 466.757 30.678 475.436 20.139 483.948Z" fill="#92A4FF"/>
<path d="M120.816 151.698C119.682 137.946 117.252 126.479 113.683 112.561C112.386 106.176 111.091 99.9537 109.795 93.5647C114.331 100.446 118.71 107.321 123.25 114.197C136.868 177.245 139.298 232.262 145.949 290.395C139.789 330.353 129.25 361.296 115.632 386.024V385.862C138.65 309.229 138.326 230.955 120.816 151.698Z" fill="#ADBAFF"/>
<path d="M114.817 279.425V278.114C115.309 275.824 115.632 273.366 116.119 271.076C115.632 273.856 115.309 276.639 114.817 279.425Z" fill="#617BFF"/>
<path d="M113.683 112.562C106.874 113.706 100.066 114.857 93.096 116.002C97.15 185.267 99.741 254.207 92.933 320.032L93.419 318.887L93.581 318.725C94.066 317.249 94.553 315.943 95.201 314.63V314.468L95.687 313.318C96.009 312.172 96.496 311.028 96.82 310.045L97.311 308.9L97.473 308.57C97.959 307.095 98.446 305.789 98.769 304.476L98.932 304.314L99.254 303.169C99.74 301.694 100.228 300.22 100.713 298.745L100.875 298.421C101.36 296.946 101.846 295.472 102.332 293.997L102.656 292.852C105.254 284.335 107.52 275.493 109.471 266.49L109.794 265.339C110.118 263.702 110.604 262.067 110.929 260.43L111.09 259.117C111.414 257.81 111.576 256.665 111.9 255.352L112.062 254.206V254.044C112.385 252.569 112.71 250.934 113.034 249.291V248.8C113.359 247.331 113.682 245.689 113.845 244.053C118.548 216.544 120.654 187.232 120.816 156.445C119.844 141.873 117.413 127.301 113.683 112.562Z" fill="#92A4FF"/>
<path d="M239.17 485.452H219.55C219.03 485.452 218.53 485.162 218.26 484.712C203.02 458.922 190.46 432.072 180.93 404.912C180.88 404.762 180.85 404.592 180.85 404.432C180.84 403.792 181.24 403.212 181.85 403.002C182.61 402.732 183.5 403.162 183.77 403.922C193.14 430.632 205.47 457.052 220.41 482.452H237.7C237.801 478.681 237.98 474.721 238.16 470.891C238.36 466.612 238.56 462.181 238.64 458.041C238.66 457.27 239.24 456.641 240.01 456.581L275.47 453.451C246.94 427.831 226.57 404.48 211.34 379.951C210.909 379.251 211.119 378.331 211.829 377.891C212.51 377.461 213.47 377.691 213.89 378.371C229.38 403.331 250.41 427.201 280.05 453.521C280.5 453.912 280.67 454.542 280.48 455.112C280.29 455.681 279.78 456.082 279.19 456.132L241.61 459.452C241.52 463.252 241.33 467.252 241.15 471.122C240.95 475.401 240.751 479.842 240.671 483.981C240.65 484.802 240 485.452 239.17 485.452ZM179.15 396.452C178.501 396.452 177.93 396.042 177.73 395.422C177.72 395.412 177.72 395.412 177.72 395.401C177.6 395.021 177.64 394.622 177.82 394.271C178.001 393.912 178.31 393.651 178.69 393.532C179.47 393.271 180.33 393.721 180.58 394.492C180.841 395.271 180.4 396.122 179.62 396.382C179.47 396.432 179.31 396.452 179.15 396.452ZM176.18 386.922C175.51 386.922 174.94 386.492 174.74 385.852C169.03 366.732 164.631 346.993 161.68 327.192C158.789 307.882 157.2 287.952 156.93 267.963V265.853C156.92 264.733 156.92 263.563 156.92 262.043C156.92 257.083 157 252.053 157.159 247.113C157.189 246.283 157.829 245.623 158.71 245.663C159.529 245.693 160.17 246.353 160.159 247.173C160.159 247.193 160.159 247.203 160.159 247.213C160 252.233 159.909 257.223 159.909 262.043C159.909 263.473 159.92 264.673 159.93 265.833V267.943C160.47 308.123 166.42 347.503 177.619 384.993C177.729 385.373 177.689 385.783 177.5 386.133C177.309 386.483 176.989 386.743 176.609 386.853C176.47 386.901 176.32 386.922 176.18 386.922ZM207.52 372.061C206.98 372.061 206.48 371.771 206.22 371.301C206.02 370.951 205.97 370.551 206.07 370.161C206.18 369.77 206.43 369.451 206.78 369.251C207.48 368.861 208.43 369.131 208.83 369.821C209.23 370.541 208.98 371.461 208.261 371.871C208.03 372.002 207.78 372.061 207.52 372.061ZM202.789 363.262C202.22 363.262 201.71 362.952 201.449 362.442C195.189 350.182 190.059 337.573 185.769 323.892C181.5 310.292 178.189 295.993 175.629 280.192C175.519 280.012 175.448 279.812 175.429 279.602C175.269 278.222 175.059 276.792 174.859 275.412C174.689 274.292 174.519 273.132 174.38 271.982C172.71 259.862 171.449 246.652 170.609 232.732C170.589 232.332 170.719 231.942 170.989 231.642C171.25 231.342 171.619 231.172 172.019 231.142C172.829 231.082 173.559 231.732 173.609 232.552C174.429 246.312 175.619 258.792 177.229 270.702C177.239 270.762 177.259 270.822 177.259 270.872L177.589 273.312C177.599 273.362 177.599 273.412 177.599 273.462C177.669 273.952 177.749 274.452 177.819 274.952C177.969 275.982 178.13 277.052 178.269 278.112C178.329 278.242 178.369 278.382 178.399 278.532C183.389 309.962 191.809 336.962 204.119 361.082C204.229 361.292 204.289 361.522 204.289 361.762C204.289 362.332 203.97 362.842 203.47 363.102C203.26 363.202 203.03 363.262 202.789 363.262ZM159.1 238.672C159.079 238.672 159.05 238.672 159.02 238.672C158.62 238.642 158.25 238.472 157.98 238.172C157.72 237.872 157.58 237.492 157.6 237.092C157.65 236.262 158.35 235.622 159.18 235.672C159.579 235.692 159.95 235.872 160.22 236.172C160.49 236.472 160.619 236.852 160.6 237.252C160.56 238.052 159.9 238.672 159.1 238.672ZM159.75 228.692C159.72 228.692 159.68 228.692 159.64 228.682C158.82 228.622 158.2 227.902 158.26 227.082C160.11 202.692 163.92 177.242 169.6 151.442L169.75 150.202C169.85 149.422 170.559 148.842 171.35 148.893C172.15 148.952 172.76 149.633 172.74 150.433C172.43 162.173 172.27 173.423 172.27 183.873C172.27 193.893 172.41 203.563 172.7 212.613C172.7 212.623 172.7 212.643 172.7 212.653C172.711 213.463 172.051 214.133 171.251 214.163C170.41 214.173 169.73 213.543 169.7 212.713C169.41 203.603 169.27 193.903 169.27 183.873C169.27 178.503 169.31 172.933 169.39 167.283C165.46 187.673 162.72 207.853 161.25 227.303C161.19 228.082 160.53 228.692 159.75 228.692ZM171.579 224.152C170.779 224.152 170.119 223.522 170.079 222.722C170.069 222.322 170.199 221.942 170.47 221.643C170.74 221.343 171.119 221.173 171.52 221.153C172.35 221.123 173.04 221.763 173.08 222.583C173.08 222.593 173.08 222.603 173.08 222.603C173.101 223.003 172.961 223.373 172.69 223.663C172.42 223.963 172.05 224.133 171.65 224.153C171.63 224.152 171.6 224.152 171.579 224.152Z" fill="#27187E"/>
<path d="M326.88 485.452H271.76C271.41 485.452 271.079 485.332 270.81 485.112C261.36 477.471 251.71 469.551 242.65 462.082C242.3 461.802 242.1 461.372 242.1 460.922C242.1 460.582 242.22 460.242 242.45 459.972C242.95 459.363 243.94 459.262 244.56 459.772C254.9 468.283 263.57 475.402 272.28 482.453H325.381V455.913C308.261 447.812 292.37 438.253 278.151 427.503C277.831 427.253 277.621 426.902 277.561 426.503C277.511 426.113 277.611 425.713 277.851 425.402C278.341 424.762 279.311 424.623 279.961 425.102C294.251 435.902 310.251 445.493 327.521 453.602C328.04 453.852 328.381 454.382 328.381 454.962V483.952C328.381 484.351 328.221 484.721 327.941 485.012C327.65 485.292 327.28 485.452 326.88 485.452ZM245.64 459.101C244.869 459.101 244.21 458.511 244.15 457.742C244.11 457.342 244.23 456.952 244.49 456.641C244.74 456.341 245.1 456.151 245.501 456.112C246.351 456.042 247.061 456.651 247.131 457.471C247.2 458.301 246.591 459.032 245.771 459.101C245.73 459.101 245.68 459.101 245.64 459.101ZM255.59 458.162C254.819 458.162 254.18 457.582 254.1 456.811C254.06 456.412 254.18 456.021 254.43 455.711C254.69 455.4 255.05 455.211 255.45 455.171C256.73 455.041 258.01 454.911 259.28 454.781H259.31L275.45 453.43C258.931 438.611 245.29 424.67 233.751 410.821C221.62 396.27 211.771 381.761 203.61 366.461C203.49 366.251 203.43 366.001 203.43 365.751C203.44 365.201 203.74 364.691 204.23 364.431C204.94 364.051 205.88 364.351 206.25 365.051C222.38 395.281 245.14 422.561 280.05 453.521C280.5 453.912 280.67 454.542 280.48 455.112C280.29 455.681 279.78 456.082 279.18 456.132L259.57 457.772C258.3 457.902 257.02 458.022 255.74 458.152C255.69 458.162 255.64 458.162 255.59 458.162ZM271.199 421.612C270.849 421.612 270.519 421.492 270.25 421.271C270.239 421.271 270.239 421.271 270.239 421.261C269.939 421.011 269.75 420.651 269.71 420.261C269.67 419.862 269.789 419.471 270.039 419.161C270.55 418.551 271.539 418.451 272.159 418.951C272.159 418.961 272.159 418.961 272.159 418.961C272.789 419.491 272.88 420.431 272.359 421.071C272.079 421.422 271.65 421.612 271.199 421.612ZM263.61 415.112C263.251 415.112 262.89 414.981 262.62 414.731C253.94 406.981 245.77 398.521 238.33 389.601C231.02 380.841 224.211 371.381 218.091 361.471C206.191 342.242 196.37 320.501 188.891 296.881C188.771 296.501 188.801 296.091 188.991 295.731C189.172 295.381 189.491 295.122 189.871 295.001C190.651 294.751 191.502 295.201 191.752 295.971C206.812 343.532 231.321 382.731 264.611 412.492C264.611 412.492 264.611 412.492 264.621 412.492C264.932 412.782 265.111 413.181 265.111 413.601C265.121 413.981 264.981 414.341 264.731 414.612C264.449 414.932 264.039 415.112 263.61 415.112ZM200.42 358.352C199.84 358.352 199.31 358.012 199.069 357.502C198.71 356.752 199.019 355.852 199.769 355.492C200.489 355.141 201.419 355.481 201.769 356.202C201.939 356.561 201.969 356.962 201.829 357.342C201.699 357.722 201.43 358.032 201.069 358.202C200.86 358.302 200.65 358.352 200.42 358.352ZM196.28 349.242C195.68 349.242 195.14 348.882 194.9 348.332C186.91 329.731 181.04 309.642 176.95 286.902C172.99 264.872 170.65 240.042 169.79 210.992V210.952C169.78 210.142 170.44 209.472 171.24 209.452C171.511 209.432 171.751 209.502 171.98 209.612C171.76 207.232 171.55 204.812 171.36 202.422C171.27 202.442 171.18 202.452 171.08 202.452H171.06C170.251 202.452 169.58 201.802 169.56 200.992L169.55 200.982C169.55 200.582 169.699 200.202 169.98 199.912C170.251 199.622 170.63 199.462 171.03 199.452H171.06C171.08 199.452 171.11 199.452 171.13 199.462C170.97 197.212 170.81 194.852 170.659 192.432C169.949 192.302 169.439 191.692 169.43 190.972C169.42 188.542 169.409 186.332 169.409 184.212C169.409 178.042 169.47 171.572 169.579 164.962V164.632C169.579 163.812 170.25 163.142 171.069 163.132C171.889 163.132 172.559 163.792 172.579 164.612C173.279 206.102 177.899 243.862 186.3 276.832C186.329 276.952 186.34 277.082 186.34 277.202C186.34 277.892 185.88 278.482 185.21 278.652C184.42 278.862 183.59 278.362 183.39 277.572C178.89 259.922 175.45 240.842 173.14 220.832C175.42 274.002 182.99 313.002 197.66 347.151C197.98 347.912 197.631 348.792 196.87 349.122C196.68 349.202 196.48 349.242 196.28 349.242ZM187.44 288.352C186.78 288.352 186.18 287.902 186.001 287.262C185.77 286.472 186.24 285.642 187.03 285.412C187.81 285.182 188.66 285.672 188.89 286.442C189.11 287.242 188.65 288.072 187.85 288.302C187.72 288.332 187.579 288.352 187.44 288.352Z" fill="#27187E"/>
<path d="M176.27 387.522C175.72 387.522 175.22 387.222 174.95 386.752C168.41 374.862 162.69 361.702 157.95 347.632C157.9 347.482 157.881 347.322 157.881 347.152C157.881 346.512 158.29 345.942 158.901 345.732C159.661 345.482 160.531 345.913 160.791 346.672C160.802 346.672 160.802 346.682 160.802 346.682L160.812 346.722C163.753 355.442 167.072 363.832 170.702 371.672C163.772 345.322 159.392 317.942 157.692 290.292C157.672 289.892 157.802 289.502 158.072 289.202C158.332 288.902 158.702 288.722 159.102 288.702C159.922 288.652 160.642 289.282 160.692 290.102C162.682 322.642 168.412 354.712 177.702 385.432L177.772 386.022C177.772 386.712 177.302 387.302 176.642 387.482C176.52 387.512 176.4 387.522 176.27 387.522ZM156.36 339.122C155.7 339.122 155.11 338.682 154.921 338.052C154.811 337.672 154.851 337.262 155.04 336.912C155.231 336.561 155.551 336.302 155.931 336.191C156.711 335.952 157.571 336.431 157.79 337.202C157.91 337.582 157.87 337.981 157.681 338.342C157.491 338.692 157.171 338.952 156.79 339.062C156.65 339.102 156.5 339.122 156.36 339.122ZM153.659 329.502C152.979 329.502 152.38 329.042 152.21 328.382C149.119 316.612 146.52 303.912 144.47 290.622L144.46 290.232C146.16 274.992 147.61 259.712 149.02 244.942C150.75 226.782 152.539 208.002 154.8 189.172C154.89 188.352 155.659 187.762 156.46 187.852C157.21 187.942 157.779 188.582 157.789 189.332C157.789 189.402 157.779 189.462 157.779 189.522C155.529 208.292 153.739 227.052 152.009 245.192C150.609 259.922 149.158 275.152 147.459 290.362C149.488 303.462 152.059 316.002 155.118 327.613C155.318 328.413 154.839 329.243 154.038 329.453C153.92 329.481 153.789 329.502 153.659 329.502ZM158.69 281.712C157.88 281.712 157.22 281.082 157.19 280.272C157.18 279.872 157.32 279.482 157.59 279.192C157.86 278.902 158.23 278.732 158.63 278.712C159.46 278.662 160.159 279.322 160.19 280.152C160.2 280.552 160.06 280.942 159.79 281.232C159.521 281.522 159.15 281.692 158.751 281.712C158.73 281.712 158.71 281.712 158.69 281.712ZM158.44 271.722H158.42C157.6 271.722 156.93 271.052 156.92 270.242C156.88 267.862 156.859 265.412 156.859 262.962C156.859 244.832 157.96 226.142 160.13 207.392C162.239 189.162 165.43 170.352 169.59 151.471C170.71 137.971 173 126.851 176.579 112.231C177.3 108.731 178.019 105.221 178.72 101.821L178.86 101.121C175.9 105.681 172.84 110.311 169.89 114.791C166.16 132.271 163.039 150.251 160.329 169.711C160.22 170.521 159.439 171.111 158.64 170.991C158.24 170.941 157.89 170.731 157.65 170.411C157.41 170.091 157.31 169.701 157.36 169.301C160.09 149.651 163.251 131.521 167.01 113.881L167.23 113.381C171.65 106.671 176.23 99.7508 180.68 92.7608C181.06 92.1608 181.84 91.9108 182.5 92.1708C183.17 92.4408 183.55 93.1508 183.409 93.8608C182.789 96.9008 182.17 99.9508 181.559 102.901C180.889 106.151 180.199 109.511 179.519 112.861L179.509 112.921C175.948 127.451 173.669 138.471 172.569 151.821L172.539 152.021C164.13 190.111 159.859 227.441 159.859 262.961C159.859 265.281 159.88 267.711 159.92 270.191V270.231C159.909 271.042 159.25 271.702 158.44 271.722ZM157.52 180.912C157.46 180.912 157.39 180.912 157.33 180.902C156.511 180.802 155.931 180.042 156.03 179.232C156.131 178.412 156.9 177.832 157.711 177.932C158.53 178.032 159.11 178.792 159.011 179.612C158.909 180.352 158.27 180.912 157.52 180.912Z" fill="#27187E"/>
<path d="M176.92 280.922C176.159 280.922 175.52 280.352 175.43 279.602C175.27 278.222 175.06 276.812 174.86 275.442C174.66 274.092 174.461 272.692 174.29 271.302C174.29 271.292 174.29 271.292 174.29 271.282V271.252C174.19 270.442 174.77 269.692 175.58 269.592C176.391 269.492 177.141 270.062 177.261 270.862C177.261 270.872 177.261 270.882 177.261 270.892C177.271 270.892 177.271 270.902 177.271 270.902V270.932C177.421 271.992 177.611 273.082 177.811 274.232C178.021 275.442 178.231 276.692 178.401 277.902L178.411 278.112V279.422C178.411 280.222 177.791 280.872 177.002 280.922C176.97 280.922 176.949 280.922 176.92 280.922Z" fill="#27187E"/>
<path d="M147.24 280.262H144.65C143.88 280.262 143.24 279.692 143.16 278.922C141.86 266.852 140.69 254.692 139.55 242.932C137.79 224.622 135.96 205.702 133.64 186.722C133.59 186.322 133.7 185.932 133.94 185.612C134.19 185.292 134.55 185.092 134.94 185.042C135.75 184.942 136.51 185.542 136.62 186.352C138.95 205.412 140.78 224.382 142.55 242.732C143.62 253.852 144.73 265.362 145.94 276.762C147.05 266.012 148.08 255.162 149.07 244.652C149.4 241.162 149.73 237.672 150.06 234.172C150.14 233.352 150.86 232.742 151.7 232.822C152.471 232.892 153.051 233.532 153.051 234.302C153.051 234.352 153.051 234.402 153.051 234.452C152.721 237.872 152.401 241.292 152.08 244.702C151.02 255.892 149.931 267.462 148.74 278.922C148.659 279.692 148.02 280.262 147.24 280.262ZM152.52 225.862C152.47 225.862 152.42 225.862 152.37 225.852C151.971 225.812 151.61 225.622 151.36 225.312C151.1 225.002 150.98 224.612 151.02 224.212C151.1 223.392 151.83 222.782 152.66 222.872C153.48 222.952 154.091 223.682 154.011 224.512C153.93 225.282 153.289 225.862 152.52 225.862ZM153.51 215.912C153.46 215.912 153.409 215.912 153.36 215.902C152.961 215.862 152.6 215.672 152.35 215.362C152.09 215.052 151.98 214.662 152.02 214.262C154.41 190.802 157.63 162.702 163.36 132.202L158.23 119.632H133.5L128.35 132.252C130.44 143.352 132.28 154.562 133.99 166.502C134 166.582 134 166.652 134 166.732C133.99 167.462 133.44 168.092 132.72 168.202C131.9 168.322 131.13 167.732 131.02 166.922C129.29 154.822 127.43 143.552 125.34 132.492L125.31 132.052C125.31 131.862 125.35 131.662 125.43 131.482L131.1 117.562C131.33 116.992 131.88 116.632 132.49 116.632H159.24C159.86 116.632 160.4 116.992 160.631 117.562L166.311 131.482C166.421 131.752 166.451 132.042 166.391 132.322C160.631 162.862 157.401 191.032 155.001 214.562C154.92 215.332 154.28 215.912 153.51 215.912ZM133.86 178.122C133.11 178.122 132.47 177.562 132.38 176.812C132.32 176.422 132.43 176.022 132.67 175.702C132.92 175.392 133.27 175.182 133.67 175.132C134.47 175.032 135.24 175.612 135.35 176.422C135.46 177.242 134.88 178.002 134.06 178.102C134 178.112 133.93 178.122 133.86 178.122Z" fill="#27187E"/>
<path d="M159.24 148.122H132.49C131.87 148.122 131.32 147.742 131.09 147.162L125.42 132.592C125.28 132.232 125.28 131.842 125.43 131.482L131.1 117.562C131.33 116.992 131.88 116.632 132.49 116.632H159.24C159.86 116.632 160.4 116.992 160.631 117.562L166.311 131.482C166.451 131.842 166.451 132.232 166.321 132.592L160.641 147.162C160.409 147.742 159.869 148.122 159.24 148.122ZM133.51 145.122H158.22L163.3 132.062L158.23 119.632H133.5L128.43 132.062L133.51 145.122Z" fill="#27187E"/>
<path d="M155.829 195.442H155.819L136.049 195.282C135.609 195.282 135.189 195.082 134.909 194.752C134.629 194.412 134.509 193.972 134.579 193.542L140.569 157.532C140.919 155.042 142.759 152.352 145.949 152.322C149.139 152.352 150.97 155.032 151.319 157.512L157.319 193.702C157.389 194.142 157.259 194.582 156.979 194.922C156.69 195.252 156.27 195.442 155.829 195.442ZM137.82 192.302L154.06 192.432L148.35 157.982C148.079 156.392 147.13 155.322 145.99 155.322H145.95H145.91C144.74 155.322 143.81 156.372 143.54 158.002L137.82 192.302Z" fill="#27187E"/>
<path d="M187.13 485.452H170.92C170.52 485.452 170.14 485.292 169.859 485.012C169.569 484.732 169.42 484.352 169.42 483.952V457.441H162.68L162.53 483.952C162.52 484.782 161.85 485.452 161.03 485.452H138.81C138.41 485.452 138.04 485.292 137.75 485.012C137.47 484.722 137.31 484.352 137.31 483.952V449.672C137.31 448.842 137.98 448.172 138.81 448.172C139.64 448.172 140.31 448.842 140.31 449.672V482.452H159.53L159.69 455.941C159.69 455.112 160.37 454.452 161.19 454.452H170.92C171.319 454.452 171.69 454.601 171.98 454.891C172.26 455.171 172.42 455.551 172.42 455.952L172.409 482.452H186.079C186.13 482.292 186.18 482.141 186.239 481.981C186.5 481.221 187.369 480.792 188.149 481.051C188.929 481.321 189.339 482.181 189.069 482.961C188.88 483.511 188.71 484.011 188.529 484.471C188.31 485.061 187.75 485.452 187.13 485.452ZM190.119 474.292C190.029 474.292 189.949 474.282 189.859 474.271C189.049 474.131 188.5 473.351 188.639 472.532C188.779 471.731 189.569 471.172 190.379 471.311C191.189 471.452 191.738 472.231 191.599 473.051C191.47 473.772 190.85 474.292 190.119 474.292ZM191.19 464.351C191.17 464.351 191.14 464.351 191.12 464.351C190.32 464.311 189.69 463.662 189.69 462.862C189.69 462.832 189.69 462.811 189.69 462.782C189.77 461.231 189.81 459.601 189.81 457.922C189.81 447.082 188.18 435.632 186.61 424.562C186.29 422.352 185.97 420.073 185.66 417.833C181.091 405.982 177.69 396.113 174.971 386.773L174.95 386.753C170.45 378.583 166.33 369.783 162.69 360.593C158.91 351.043 155.52 340.743 152.64 330.003C152.539 329.613 152.59 329.213 152.789 328.863C152.989 328.512 153.319 328.262 153.699 328.163C154.489 327.953 155.329 328.442 155.539 329.222C161.14 350.082 168.25 368.243 177.279 384.762C177.489 384.942 177.63 385.182 177.71 385.442C180.43 394.873 183.869 404.873 188.529 416.922L188.609 417.252C188.929 419.582 189.269 421.962 189.599 424.272C191.169 435.363 192.809 446.842 192.809 457.922C192.809 459.622 192.769 461.302 192.689 462.932C192.65 463.731 191.99 464.351 191.19 464.351ZM138.81 441.172C137.98 441.172 137.31 440.492 137.31 439.672C137.31 438.842 137.98 438.162 138.81 438.162C139.64 438.162 140.31 438.842 140.31 439.672C140.31 440.492 139.64 441.172 138.81 441.172ZM138.81 431.172C137.98 431.172 137.31 430.492 137.31 429.672V325.602L137.36 325.232C140.13 314.352 142.531 302.562 144.47 290.162C144.58 289.432 145.199 288.892 145.949 288.892C146.679 288.892 147.319 289.442 147.429 290.162C148.469 296.913 149.658 303.533 150.959 309.852C150.979 309.953 150.988 310.052 150.999 310.152C150.999 310.863 150.488 311.482 149.799 311.623C148.988 311.783 148.189 311.253 148.019 310.453C147.299 306.923 146.589 303.253 145.939 299.543C144.299 308.732 142.409 317.563 140.309 325.793V429.673C140.31 430.492 139.64 431.172 138.81 431.172ZM151.65 321.412C150.95 321.412 150.35 320.941 150.19 320.262C150.19 320.252 150.19 320.252 150.19 320.242C150.1 319.872 150.16 319.462 150.37 319.122C150.58 318.782 150.921 318.552 151.31 318.452C152.1 318.262 152.92 318.771 153.11 319.561V319.572C153.3 320.372 152.8 321.181 151.99 321.372C151.88 321.401 151.76 321.412 151.65 321.412Z" fill="#27187E"/>
<path d="M153.409 485.452H131.189C130.379 485.452 129.699 484.782 129.689 483.962L129.389 457.452H122.649L122.809 483.941C122.809 484.341 122.649 484.721 122.369 485.002C122.089 485.292 121.709 485.452 121.309 485.452H105.089C104.469 485.452 103.899 485.052 103.689 484.462C103.509 484.002 103.339 483.512 103.159 482.972C103.029 482.592 103.059 482.182 103.229 481.823C103.409 481.463 103.719 481.192 104.099 481.062C104.869 480.812 105.739 481.243 105.999 482.012C106.049 482.152 106.099 482.302 106.149 482.452H119.799L119.639 455.962C119.639 455.552 119.789 455.172 120.079 454.892C120.359 454.602 120.739 454.453 121.139 454.453H130.869C131.689 454.453 132.359 455.113 132.369 455.932L132.679 482.453H151.908C151.908 472.743 151.898 462.323 151.888 449.673C151.888 449.663 151.888 449.663 151.888 449.652C151.878 449.253 152.037 448.883 152.318 448.593C152.608 448.313 152.978 448.152 153.388 448.152C154.208 448.152 154.878 448.823 154.888 449.652C154.898 463.113 154.908 474.012 154.908 483.953C154.908 484.352 154.749 484.732 154.469 485.013C154.18 485.292 153.81 485.452 153.409 485.452ZM102.14 474.302C101.41 474.302 100.79 473.772 100.67 473.052C100.6 472.662 100.69 472.262 100.92 471.932C101.15 471.613 101.49 471.392 101.89 471.323C102.69 471.173 103.47 471.732 103.62 472.533V472.543C103.69 472.933 103.6 473.333 103.37 473.663C103.14 473.993 102.8 474.213 102.4 474.272C102.31 474.292 102.22 474.302 102.14 474.302ZM101.06 464.362C100.26 464.362 99.6 463.742 99.56 462.941C99.47 461.151 99.42 459.292 99.42 457.401C99.42 446.011 101.07 434.231 102.67 422.842C102.93 421.012 103.19 419.112 103.45 417.262L103.53 416.932C107.43 406.823 110.98 396.522 114.359 385.422C114.439 385.172 114.579 384.942 114.78 384.762C123.76 368.332 130.84 350.152 136.42 329.182C136.62 328.392 137.46 327.902 138.25 328.113C139.05 328.323 139.53 329.152 139.32 329.953C133.61 351.393 126.35 369.963 117.11 386.753C117.1 386.773 117.09 386.793 117.07 386.813C113.74 397.723 110.24 407.873 106.39 417.843C106.16 419.563 105.91 421.303 105.67 423.043C104.07 434.442 102.42 446.232 102.42 457.402C102.42 459.253 102.47 461.062 102.56 462.783C102.56 462.812 102.56 462.843 102.56 462.863C102.56 463.663 101.93 464.323 101.14 464.363C101.11 464.362 101.08 464.362 101.06 464.362ZM153.38 441.151C152.55 441.151 151.88 440.481 151.88 439.651C151.88 438.832 152.55 438.151 153.369 438.151C154.189 438.151 154.869 438.822 154.869 439.641C154.869 439.641 154.88 439.641 154.88 439.651C154.88 440.481 154.199 441.151 153.38 441.151ZM153.36 431.151C152.54 431.151 151.86 430.481 151.86 429.651C151.85 420.981 151.84 412.311 151.82 403.641C151.78 378.401 151.74 352.311 151.74 326.601C149.61 318.091 147.61 308.731 145.961 299.541C145.32 303.221 144.621 306.871 143.9 310.4C143.73 311.19 142.92 311.72 142.13 311.56C141.43 311.42 140.93 310.81 140.93 310.1C140.93 309.991 140.94 309.89 140.96 309.79C142.25 303.479 143.43 296.87 144.47 290.16C144.58 289.44 145.22 288.89 145.949 288.89C146.679 288.89 147.319 289.44 147.429 290.16C149.288 302.08 151.868 314.83 154.699 326.05L154.739 326.41C154.739 352.519 154.779 379.01 154.819 404.63C154.84 412.97 154.849 421.31 154.859 429.649C154.86 430.481 154.19 431.151 153.36 431.151ZM140.29 321.362C140.17 321.362 140.06 321.351 139.95 321.322C139.56 321.231 139.22 320.992 139.01 320.651C138.8 320.311 138.74 319.912 138.83 319.521C139.01 318.731 139.83 318.211 140.63 318.401C141.02 318.492 141.35 318.731 141.56 319.072C141.77 319.412 141.84 319.811 141.75 320.202C141.59 320.892 140.99 321.362 140.29 321.362Z" fill="#27187E"/>
<path d="M286.579 497.072C285.75 497.072 285.079 496.401 285.079 495.572C285.079 494.752 285.75 494.072 286.579 494.072H339.97V485.441H268C268 485.452 267.989 485.452 267.989 485.452C267.159 485.452 266.489 484.771 266.489 483.952C266.489 483.122 267.159 482.452 267.989 482.452H341.47C341.869 482.452 342.25 482.601 342.53 482.891C342.82 483.171 342.97 483.551 342.97 483.952V495.572C342.97 495.981 342.82 496.351 342.53 496.632C342.251 496.922 341.881 497.072 341.47 497.072H286.579ZM153.78 497.072C152.961 497.072 152.29 496.401 152.29 495.572C152.29 494.752 152.961 494.072 153.78 494.072H192.39L187.1 485.441H107.99C107.16 485.441 106.49 484.771 106.49 483.952C106.49 483.122 107.16 482.452 107.99 482.452H247.99C248.82 482.452 249.49 483.122 249.49 483.952C249.49 484.771 248.82 485.441 247.99 485.441H207.67L213.09 494.072H266.579C267.409 494.072 268.079 494.752 268.079 495.572V495.612C268.059 496.431 267.399 497.072 266.579 497.072H212.26C211.739 497.072 211.26 496.811 210.989 496.372L204.13 485.441H190.619L196.349 494.792C196.639 495.252 196.649 495.832 196.379 496.311C196.118 496.782 195.618 497.072 195.068 497.072H153.78ZM21.07 497.072C20.24 497.072 19.57 496.401 19.57 495.572C19.57 494.752 20.24 494.072 21.07 494.072H76.36L81.66 485.441H-50.51V494.072H1.06999C1.89999 494.072 2.56999 494.752 2.56999 495.572C2.56999 496.401 1.89999 497.072 1.06999 497.072H-52.01C-52.41 497.072 -52.79 496.922 -53.07 496.641C-53.35 496.351 -53.51 495.971 -53.51 495.572V483.952C-53.51 483.552 -53.35 483.162 -53.07 482.891C-52.79 482.612 -52.4 482.452 -52.01 482.452H101.52C102.07 482.452 102.57 482.742 102.83 483.212C103.1 483.682 103.09 484.272 102.8 484.732L97.07 494.073H133.781C134.61 494.073 135.291 494.753 135.291 495.573C135.291 496.402 134.611 497.073 133.781 497.073H94.391C93.851 497.073 93.351 496.783 93.081 496.312C92.821 495.833 92.831 495.252 93.111 494.793L98.841 485.442H85.181L78.481 496.363C78.211 496.802 77.721 497.073 77.201 497.073H21.07V497.072ZM276.579 497.072C275.75 497.072 275.079 496.401 275.079 495.572C275.079 494.752 275.75 494.072 276.579 494.072C277.409 494.072 278.079 494.752 278.079 495.572C278.079 496.401 277.41 497.072 276.579 497.072ZM143.78 497.072C142.96 497.072 142.29 496.401 142.29 495.572C142.29 494.752 142.96 494.072 143.78 494.072C144.609 494.072 145.28 494.752 145.28 495.572C145.28 496.401 144.61 497.072 143.78 497.072ZM11.07 497.072C10.24 497.072 9.56999 496.401 9.56999 495.572C9.56999 494.752 10.24 494.072 11.07 494.072C11.9 494.072 12.57 494.752 12.57 495.572C12.57 496.401 11.9 497.072 11.07 497.072ZM257.989 485.441C257.159 485.441 256.489 484.771 256.489 483.952C256.489 483.122 257.159 482.452 257.989 482.452C258.819 482.452 259.489 483.122 259.489 483.952C259.489 484.772 258.82 485.441 257.989 485.441Z" fill="#27187E"/>
<path d="M-65.79 508.702C-66.61 508.702 -67.29 508.032 -67.29 507.202C-67.29 506.372 -66.61 505.702 -65.79 505.702H69.0799L70.9299 502.762C71.3499 502.082 72.31 501.852 72.9899 502.283C73.6899 502.722 73.91 503.652 73.47 504.352L71.1799 508.002C70.9099 508.432 70.43 508.702 69.91 508.702H-65.7701C-65.7801 508.702 -65.78 508.702 -65.79 508.702ZM-65.79 504.662C-66.61 504.662 -67.29 503.992 -67.29 503.162V495.572C-67.29 495.181 -67.1301 494.792 -66.8501 494.512C-66.5701 494.232 -66.18 494.072 -65.79 494.072H66.6199C67.45 494.072 68.13 494.752 68.13 495.572C68.13 496.401 67.45 497.072 66.6199 497.072H-64.29V503.162C-64.29 503.992 -64.96 504.662 -65.79 504.662ZM76.63 497.072C75.8 497.072 75.1199 496.401 75.1199 495.572C75.1199 494.752 75.8 494.072 76.63 494.072C77.45 494.072 78.13 494.752 78.13 495.572C78.13 496.401 77.45 497.072 76.63 497.072Z" fill="#27187E"/>
<path d="M202.369 508.702H87.1C86.55 508.702 86.05 508.401 85.78 507.922C85.52 507.452 85.53 506.862 85.819 506.401L93.119 494.782C93.389 494.342 93.869 494.072 94.389 494.072H164.069C164.899 494.072 165.569 494.752 165.569 495.572C165.569 496.401 164.899 497.072 164.069 497.072H95.22L89.81 505.702H199.65L194.24 497.072H184.07C183.24 497.072 182.57 496.401 182.57 495.572C182.57 494.752 183.24 494.072 184.07 494.072H195.07C195.591 494.072 196.07 494.342 196.341 494.782L203.641 506.401C203.931 506.862 203.951 507.441 203.681 507.922C203.42 508.401 202.909 508.702 202.369 508.702ZM174.07 497.072C173.24 497.072 172.57 496.401 172.57 495.572C172.57 494.752 173.24 494.072 174.07 494.072C174.89 494.072 175.57 494.752 175.57 495.572C175.57 496.401 174.89 497.072 174.07 497.072Z" fill="#27187E"/>
<path d="M219.55 508.702C218.73 508.702 218.06 508.032 218.06 507.202C218.06 506.372 218.73 505.702 219.55 505.702H353.75V502.891C353.75 502.072 354.42 501.391 355.25 501.391C356.079 501.391 356.75 502.072 356.75 502.891V507.202C356.75 507.601 356.59 507.981 356.31 508.262C356.03 508.542 355.65 508.702 355.25 508.702H219.57C219.56 508.702 219.56 508.702 219.55 508.702ZM217.409 505.282C216.889 505.282 216.409 505.021 216.139 504.582L210.989 496.372C210.699 495.912 210.689 495.322 210.949 494.851C211.21 494.372 211.71 494.072 212.26 494.072H342.57C343.4 494.072 344.07 494.752 344.07 495.572C344.07 496.401 343.4 497.072 342.57 497.072H214.97L218.68 502.981C219.119 503.681 218.909 504.612 218.21 505.051C217.97 505.202 217.69 505.282 217.409 505.282ZM352.57 497.072C351.74 497.072 351.07 496.401 351.07 495.572C351.07 494.752 351.74 494.072 352.57 494.072C353.4 494.072 354.07 494.752 354.07 495.572C354.07 496.401 353.4 497.072 352.57 497.072Z" fill="#27187E"/>
<path d="M-72.48 520.332C-73.31 520.332 -73.98 519.651 -73.98 518.832C-73.98 518.002 -73.31 517.332 -72.48 517.332H61.94L63.98 514.002C64.4 513.312 65.36 513.082 66.04 513.502C66.49 513.782 66.76 514.262 66.76 514.792C66.76 515.061 66.68 515.332 66.54 515.572L64.06 519.612C63.79 520.051 63.3 520.322 62.78 520.322L-72.48 520.332ZM-81.19 519.042C-82.02 519.042 -82.69 518.372 -82.69 517.542C-82.69 516.712 -82.02 516.042 -81.19 516.042C-80.37 516.042 -79.69 516.712 -79.69 517.542C-79.69 518.372 -80.37 519.042 -81.19 519.042ZM-81.19 509.042C-82.02 509.042 -82.69 508.372 -82.69 507.542V507.202C-82.69 506.811 -82.53 506.422 -82.25 506.141C-81.97 505.862 -81.59 505.702 -81.19 505.702H58.81C59.63 505.702 60.31 506.372 60.31 507.202C60.31 508.032 59.63 508.702 58.81 508.702H-80.24C-80.51 508.922 -80.84 509.042 -81.19 509.042ZM68.81 508.702C67.98 508.702 67.31 508.032 67.31 507.202C67.31 506.372 67.98 505.702 68.81 505.702C69.63 505.702 70.31 506.372 70.31 507.202C70.31 508.032 69.63 508.702 68.81 508.702Z" fill="#27187E"/>
<path d="M198.409 520.332C197.59 520.332 196.909 519.651 196.909 518.832C196.909 518.002 197.59 517.332 198.409 517.332L206.819 517.322L201.529 508.702H87.929L82.639 517.332H178.409C179.239 517.332 179.909 518.002 179.909 518.832C179.909 519.651 179.239 520.322 178.409 520.322H79.959C79.419 520.322 78.919 520.032 78.659 519.561C78.389 519.082 78.399 518.501 78.679 518.042L85.819 506.412C86.089 505.972 86.579 505.702 87.099 505.702H202.369C202.89 505.702 203.369 505.971 203.649 506.412L210.779 518.042C211.059 518.502 211.069 519.092 210.809 519.561C210.538 520.032 210.038 520.322 209.499 520.322L198.409 520.332ZM188.409 520.322C187.59 520.322 186.909 519.651 186.909 518.832C186.909 518.002 187.59 517.332 188.409 517.332C189.239 517.332 189.909 518.002 189.909 518.832C189.909 519.651 189.24 520.322 188.409 520.322Z" fill="#27187E"/>
<path d="M370.66 520.332H233.38C232.56 520.332 231.89 519.651 231.89 518.832C231.89 518.002 232.56 517.332 233.38 517.332H369.16V516.101C369.16 515.271 369.83 514.601 370.66 514.601C371.48 514.601 372.16 515.271 372.16 516.101V518.832C372.16 519.231 372.001 519.601 371.72 519.892C371.43 520.172 371.06 520.332 370.66 520.332ZM224.96 517.512C224.44 517.512 223.96 517.243 223.68 516.802C223.47 516.452 223.409 516.052 223.5 515.662C223.59 515.271 223.829 514.941 224.18 514.731C224.86 514.311 225.82 514.542 226.24 515.231C226.671 515.931 226.45 516.862 225.74 517.292C225.51 517.432 225.24 517.512 224.96 517.512ZM219.73 508.992C219.2 508.992 218.73 508.721 218.45 508.271L218.28 507.981C217.99 507.521 217.98 506.941 218.251 506.461C218.511 505.991 219.011 505.701 219.561 505.701H359.561C360.381 505.701 361.051 506.371 361.051 507.201C361.051 508.02 360.381 508.701 359.561 508.701H220.621C220.581 508.72 220.552 508.741 220.521 508.77C220.28 508.912 220.01 508.992 219.73 508.992ZM369.55 508.702C368.73 508.702 368.05 508.021 368.05 507.202C368.05 506.372 368.73 505.702 369.55 505.702C370.38 505.702 371.05 506.372 371.05 507.202C371.05 508.022 370.38 508.702 369.55 508.702Z" fill="#27187E"/>
<path d="M72.67 531.952H55.48C54.94 531.952 54.43 531.662 54.17 531.181C53.91 530.711 53.92 530.121 54.21 529.661L83.06 483.161C83.33 482.721 83.82 482.451 84.34 482.451H101.52C102.35 482.451 103.02 483.121 103.02 483.951C103.02 484.77 102.35 485.44 101.52 485.44H85.17L58.18 528.951H71.83L98.23 486.421C98.65 485.741 99.61 485.511 100.29 485.931C100.63 486.141 100.87 486.471 100.96 486.862C101.05 487.252 100.99 487.651 100.78 488.002L73.94 531.242C73.66 531.691 73.19 531.952 72.67 531.952Z" fill="#27187E"/>
<path d="M233.98 531.952H216.789C216.269 531.952 215.789 531.691 215.519 531.242L188.649 487.931C188.439 487.591 188.369 487.191 188.46 486.801C188.55 486.411 188.789 486.081 189.13 485.871C189.819 485.44 190.77 485.671 191.199 486.35L217.63 528.951H231.279L204.13 485.44H187.949C187.949 485.451 187.949 485.451 187.939 485.451C187.109 485.451 186.439 484.77 186.439 483.951C186.439 483.121 187.109 482.451 187.939 482.451H204.959C205.479 482.451 205.959 482.711 206.229 483.15L235.249 529.661C235.538 530.121 235.559 530.711 235.288 531.181C235.03 531.662 234.53 531.952 233.98 531.952Z" fill="#27187E"/>
<path d="M198.8 321.532C198.19 321.532 197.65 321.172 197.42 320.612L196.93 319.471C196.88 319.341 196.84 319.201 196.82 319.061C196.211 317.651 195.74 316.391 195.29 315.162V315.151L195.24 314.872L194.82 313.901C194.591 313.351 194.4 312.811 194.22 312.341C193.99 311.711 193.789 311.161 193.57 310.711L193.47 310.451L193 309.051C192.55 307.691 192.1 306.461 191.649 305.261L191.559 305.001L191.499 304.711L191.049 303.641C190.729 302.651 190.399 301.671 190.078 300.691L189.589 299.212L189.519 298.662L187.799 293.302V293.292C184.839 283.592 182.559 274.932 180.799 266.832L180.469 265.642C180.139 264.012 179.819 262.362 179.499 260.772L179.148 259.302C179.078 258.742 178.968 258.172 178.858 257.582C178.738 256.972 178.608 256.342 178.518 255.642L178.228 254.612L178.168 254.212C177.878 252.872 177.558 251.272 177.378 249.602L177.228 249.132C177.178 248.892 177.138 248.672 177.088 248.442C177.018 248.052 177.098 247.652 177.327 247.322C177.557 246.992 177.897 246.762 178.287 246.692C179.088 246.532 179.888 247.092 180.037 247.892C180.067 248.062 180.107 248.232 180.138 248.392L180.348 249.142C180.508 250.802 180.858 252.462 181.128 253.721L181.157 253.981L181.477 255.161C181.547 255.741 181.657 256.301 181.777 256.901C181.897 257.511 182.027 258.141 182.117 258.851L182.437 260.141C182.757 261.771 183.077 263.411 183.407 265.011L183.727 266.171C185.457 274.201 187.727 282.781 190.667 292.411L190.997 293.581C191.217 294.241 191.436 294.901 191.656 295.56C191.917 296.361 192.177 297.15 192.436 297.951L192.516 298.501C192.966 299.881 193.426 301.271 193.876 302.65L194.336 303.73C194.396 303.871 194.436 304.031 194.456 304.19C194.895 305.38 195.346 306.611 195.815 308L196.025 308.49L196.295 309.45C194.815 292.17 193.875 274.38 193.435 255.07V255.03C193.435 254.21 194.085 253.56 194.905 253.54H194.935C195.755 253.54 196.415 254.18 196.435 255C196.435 255 196.435 255 196.435 255.01C196.965 278.25 198.225 299.47 200.285 319.88C200.365 320.62 199.895 321.3 199.166 321.48C199.05 321.512 198.92 321.532 198.8 321.532ZM194.78 246.542H194.76C193.94 246.542 193.27 245.882 193.26 245.062C193.25 244.662 193.409 244.282 193.69 243.992C193.961 243.712 194.34 243.552 194.74 243.542H194.761C195.58 243.542 196.251 244.202 196.261 245.022C196.27 245.852 195.61 246.532 194.78 246.542ZM176.97 239.792C176.23 239.792 175.6 239.262 175.49 238.522C175.37 237.702 175.93 236.932 176.751 236.812C177.54 236.682 178.33 237.262 178.461 238.072C178.58 238.882 178.021 239.652 177.2 239.772C177.119 239.792 177.05 239.792 176.97 239.792ZM194.68 236.542H194.67C193.85 236.542 193.18 235.872 193.17 235.052C193.159 233.162 193.159 231.342 193.159 229.802C193.159 189.472 195.239 148.482 197.059 117.262C194.079 116.772 191.099 116.272 188.219 115.782C185.279 115.282 182.229 114.772 179.179 114.272C175.699 128.912 173.489 142.732 172.419 156.502C172.549 181.622 174.108 205.752 177.059 228.202C177.069 228.262 177.069 228.322 177.069 228.392C177.069 229.142 176.509 229.782 175.769 229.882C174.939 229.992 174.189 229.402 174.079 228.592C171.119 206.002 169.55 181.732 169.42 156.452V156.332C170.539 141.952 172.88 127.512 176.59 112.212C176.77 111.452 177.52 110.952 178.289 111.082C181.8 111.662 185.269 112.242 188.64 112.812C191.97 113.372 195.41 113.952 198.88 114.522C199.64 114.642 200.18 115.322 200.13 116.092C198.279 147.712 196.159 189.212 196.159 229.802C196.159 231.542 196.159 233.302 196.17 235.032C196.18 235.862 195.51 236.542 194.68 236.542Z" fill="#27187E"/>
<path d="M72.34 485.452H52.72C51.9 485.452 51.24 484.802 51.22 483.981C51.14 479.832 50.94 475.391 50.74 471.101C50.56 467.242 50.38 463.242 50.28 459.452L12.71 456.132C12.11 456.082 11.61 455.682 11.42 455.112C11.23 454.542 11.4 453.912 11.85 453.521C41.48 427.221 62.49 403.331 77.96 378.331C78.38 377.65 79.34 377.421 80.02 377.841C80.72 378.281 80.94 379.201 80.51 379.911C65.3 404.48 44.94 427.85 16.43 453.451L51.88 456.581C52.65 456.641 53.24 457.271 53.25 458.041C53.33 462.19 53.54 466.631 53.74 470.931C53.91 474.742 54.09 478.691 54.19 482.452H71.48C86.38 457.021 98.68 430.612 108.05 403.941C108.32 403.181 109.2 402.751 109.96 403.021C110.57 403.231 110.97 403.811 110.97 404.452C110.96 404.622 110.94 404.782 110.88 404.932C101.36 432.052 88.83 458.892 73.63 484.712C73.36 485.162 72.87 485.452 72.34 485.452ZM112.67 396.481C112.51 396.481 112.35 396.452 112.2 396.401C111.41 396.141 110.98 395.301 111.24 394.511C111.49 393.741 112.35 393.301 113.13 393.551C113.91 393.801 114.35 394.651 114.09 395.441C113.89 396.061 113.32 396.481 112.67 396.481ZM115.64 386.941C115.5 386.941 115.35 386.921 115.21 386.881C114.83 386.761 114.51 386.501 114.32 386.151C114.13 385.801 114.09 385.391 114.2 385.011C125.46 347.421 131.43 308.041 131.97 267.961V265.821C131.97 265.151 131.97 264.471 131.97 263.801C131.97 258.371 131.87 252.801 131.68 247.251V247.211C131.67 246.391 132.31 245.731 133.13 245.701C133.95 245.641 134.65 246.311 134.68 247.141C134.87 252.671 134.97 258.281 134.97 263.801C134.97 264.141 134.97 264.481 134.97 264.821C134.97 265.151 134.97 265.491 134.97 265.831V267.981C134.7 287.941 133.09 307.861 130.19 327.201C127.22 346.991 122.81 366.73 117.08 385.871C116.89 386.502 116.3 386.941 115.64 386.941ZM84.32 372.012C84.06 372.012 83.81 371.942 83.58 371.823C83.23 371.623 82.98 371.302 82.87 370.913C82.77 370.533 82.81 370.133 83.01 369.783V369.772C83.4 369.082 84.35 368.812 85.05 369.203C85.4 369.402 85.65 369.723 85.76 370.102C85.87 370.493 85.82 370.892 85.62 371.252C85.62 371.252 85.62 371.252 85.62 371.262C85.35 371.722 84.85 372.012 84.32 372.012ZM89.04 363.202C88.8 363.202 88.57 363.142 88.36 363.042C87.85 362.782 87.54 362.272 87.54 361.702C87.54 361.462 87.59 361.231 87.7 361.021C99.96 336.952 108.34 309.961 113.33 278.531C113.37 278.331 113.43 278.151 113.54 277.981C113.7 276.981 113.85 275.951 114 274.951C114.05 274.581 114.11 274.201 114.16 273.831C114.13 273.661 114.12 273.481 114.15 273.311C116 260.641 117.34 247.301 118.25 232.521C118.3 231.701 119.03 231.081 119.84 231.121C120.24 231.141 120.61 231.321 120.87 231.621C121.14 231.921 121.27 232.301 121.25 232.701C120.4 246.361 119.2 258.771 117.56 270.641C117.62 270.871 117.64 271.101 117.6 271.331C117.36 272.671 117.16 274.051 116.97 275.391C116.76 276.791 116.55 278.241 116.29 279.681C116.26 279.861 116.2 280.031 116.11 280.191C113.55 295.991 110.24 310.271 105.99 323.861C101.72 337.531 96.61 350.131 90.38 362.371C90.38 362.381 90.38 362.381 90.38 362.381C90.12 362.892 89.61 363.202 89.04 363.202ZM132.73 238.712C131.93 238.712 131.27 238.082 131.23 237.292C131.18 236.462 131.82 235.752 132.64 235.712C133.48 235.672 134.18 236.302 134.22 237.122C134.27 237.952 133.64 238.662 132.81 238.702C132.78 238.702 132.76 238.712 132.73 238.712ZM132.07 228.732C131.29 228.732 130.64 228.122 130.58 227.342C129.09 207.692 126.38 187.502 122.5 167.322C122.58 172.952 122.62 178.452 122.62 183.692C122.62 193.782 122.47 203.532 122.18 212.682C122.15 213.522 121.46 214.182 120.63 214.132C119.81 214.112 119.17 213.452 119.18 212.632C119.18 212.612 119.18 212.602 119.18 212.592C119.48 203.472 119.63 193.752 119.63 183.692C119.63 173.382 119.47 162.192 119.16 150.432C119.13 149.632 119.74 148.952 120.54 148.892C121.36 148.842 122.04 149.422 122.14 150.201L122.3 151.451C127.91 176.961 131.7 202.411 133.57 227.111C133.63 227.941 133.01 228.661 132.19 228.721C132.15 228.722 132.11 228.732 132.07 228.732ZM120.29 224.132C120.27 224.132 120.24 224.132 120.22 224.122C119.82 224.112 119.45 223.932 119.18 223.642C118.91 223.342 118.77 222.962 118.79 222.562C118.83 221.732 119.53 221.072 120.36 221.132C121.18 221.172 121.82 221.872 121.79 222.702C121.75 223.502 121.09 224.132 120.29 224.132Z" fill="#27187E"/>
<path d="M20.14 485.452H-35.15C-35.55 485.452 -35.92 485.292 -36.21 485.012C-36.49 484.722 -36.65 484.352 -36.65 483.952V454.962C-36.65 454.382 -36.31 453.852 -35.78 453.602C-18.58 445.522 -2.62004 435.962 11.65 425.203C12.29 424.722 13.26 424.852 13.75 425.493C14.24 426.152 14.11 427.102 13.45 427.602C-0.750019 438.312 -16.59 447.842 -33.65 455.913V482.453H19.61C29.01 474.852 38.52 467.033 47.45 459.673C48.07 459.163 49.06 459.263 49.57 459.873C49.79 460.143 49.91 460.482 49.91 460.833C49.91 461.283 49.71 461.703 49.36 461.982C40.35 469.413 30.74 477.312 21.08 485.113C20.82 485.332 20.48 485.452 20.14 485.452ZM46.1 459.092C46.06 459.092 46.01 459.092 45.97 459.092C45.57 459.052 45.21 458.862 44.95 458.552C44.7 458.252 44.57 457.863 44.61 457.462C44.68 456.642 45.39 456.022 46.24 456.102C46.64 456.142 47 456.323 47.25 456.632C47.51 456.942 47.63 457.332 47.6 457.732C47.53 458.492 46.87 459.092 46.1 459.092ZM36.14 458.151C36.1 458.151 36.05 458.151 36 458.151C34.92 458.042 33.84 457.931 32.78 457.832L32.17 457.772L12.72 456.132C12.12 456.082 11.61 455.682 11.42 455.112C11.23 454.542 11.4 453.912 11.85 453.521C46.78 422.481 69.54 395.141 85.67 364.871C86.04 364.161 86.99 363.871 87.7 364.251C88.18 364.511 88.49 365.011 88.49 365.561C88.49 365.811 88.43 366.051 88.31 366.271C80.16 381.601 70.29 396.141 58.16 410.731C46.62 424.612 32.97 438.582 16.44 453.431L33.47 454.881C34.41 454.981 35.35 455.071 36.29 455.161C37.12 455.241 37.72 455.971 37.64 456.801C37.56 457.572 36.92 458.151 36.14 458.151ZM20.4 421.722C19.95 421.722 19.53 421.522 19.24 421.172C18.99 420.862 18.87 420.472 18.91 420.072C18.95 419.672 19.14 419.311 19.45 419.061C20.07 418.551 21.06 418.651 21.56 419.271C22.09 419.912 21.99 420.851 21.35 421.381C21.09 421.601 20.75 421.722 20.4 421.722ZM28 415.222C27.57 415.222 27.16 415.042 26.88 414.722C26.63 414.442 26.49 414.082 26.5 413.712C26.5 413.292 26.68 412.882 27 412.602C60.31 382.882 84.86 343.703 99.97 296.152C100.21 295.373 101.07 294.923 101.85 295.173C102.64 295.423 103.08 296.273 102.83 297.063C95.33 320.673 85.48 342.393 73.57 361.624C67.44 371.524 60.62 380.974 53.3 389.733C45.85 398.653 37.68 407.103 28.99 414.843C28.72 415.092 28.36 415.222 28 415.222ZM91.5 358.162C91.27 358.162 91.05 358.112 90.85 358.012C90.49 357.842 90.22 357.533 90.08 357.152C89.95 356.783 89.97 356.373 90.15 356.012C90.15 356.002 90.15 356.002 90.15 356.002C90.5 355.282 91.43 354.962 92.15 355.312C92.89 355.663 93.21 356.562 92.85 357.312C92.6 357.822 92.07 358.162 91.5 358.162ZM95.63 349.052C95.43 349.052 95.23 349.012 95.04 348.932C94.67 348.772 94.39 348.482 94.24 348.102C94.09 347.732 94.1 347.323 94.25 346.962C108.95 312.691 116.52 273.532 118.77 220.132C116.44 240.472 112.93 259.852 108.35 277.752C108.15 278.542 107.32 279.042 106.53 278.832C105.859 278.662 105.4 278.072 105.4 277.382C105.4 277.262 105.41 277.132 105.44 277.012C113.89 244.012 118.56 206.192 119.32 164.602C119.33 163.792 120 163.132 120.82 163.132C121.65 163.142 122.32 163.812 122.32 164.632V164.942C122.42 171.492 122.48 177.942 122.48 184.102C122.48 186.472 122.47 188.652 122.46 190.772C122.45 191.492 121.92 192.112 121.22 192.242C121.07 194.592 120.91 196.952 120.74 199.262C120.77 199.252 120.8 199.252 120.84 199.252H120.86C121.26 199.262 121.64 199.422 121.92 199.712C122.19 200.002 122.34 200.382 122.34 200.782C122.32 201.592 121.65 202.252 120.84 202.252H120.81C120.71 202.252 120.61 202.242 120.51 202.222C120.32 204.632 120.1 207.062 119.88 209.432C120.12 209.302 120.37 209.242 120.65 209.252C121.45 209.272 122.11 209.942 122.11 210.752C122.11 210.762 122.11 210.782 122.1 210.792C121.25 239.832 118.91 264.662 114.94 286.702C110.85 309.442 104.99 329.533 97.01 348.142C96.77 348.691 96.23 349.052 95.63 349.052ZM104.29 288.532C104.15 288.532 104.01 288.512 103.87 288.472C103.49 288.362 103.17 288.112 102.97 287.762C102.78 287.412 102.73 287.002 102.84 286.622C103.06 285.842 103.91 285.362 104.7 285.592C105.49 285.812 105.95 286.652 105.73 287.442C105.54 288.082 104.95 288.532 104.29 288.532Z" fill="#27187E"/>
<path d="M115.63 387.522C115.51 387.522 115.38 387.512 115.26 387.482C114.6 387.302 114.13 386.712 114.13 386.022V385.863L114.19 385.432C123.43 354.682 129.13 322.622 131.14 290.142C131.19 289.322 131.91 288.692 132.72 288.742C133.12 288.762 133.49 288.942 133.76 289.242C134.02 289.542 134.15 289.932 134.13 290.322C132.42 317.993 128.05 345.402 121.14 371.812C124.8 363.892 128.16 355.432 131.12 346.632C131.37 345.862 132.24 345.432 133.02 345.682C133.63 345.892 134.04 346.462 134.04 347.102C134.04 347.272 134.01 347.432 133.96 347.582C129.22 361.672 123.5 374.852 116.95 386.752C116.68 387.222 116.18 387.522 115.63 387.522ZM135.55 339.072C135.41 339.072 135.27 339.051 135.13 339.011C134.74 338.891 134.43 338.641 134.24 338.291C134.04 337.931 134 337.531 134.12 337.141C134.35 336.371 135.2 335.901 135.98 336.131C136.78 336.371 137.23 337.211 136.99 338.001V338.011C136.8 338.632 136.21 339.072 135.55 339.072ZM138.25 329.441C138.12 329.441 137.99 329.431 137.87 329.391C137.07 329.181 136.59 328.362 136.8 327.561C139.84 315.961 142.41 303.452 144.44 290.372C142.62 274.502 141.1 258.632 139.63 243.272C137.95 225.752 136.21 207.622 134.03 189.492C134.03 189.482 134.03 189.482 134.03 189.472C134.02 189.412 134.02 189.352 134.02 189.282C134.03 188.532 134.6 187.902 135.34 187.812C136.15 187.712 136.91 188.312 137.01 189.122C139.19 207.322 140.93 225.482 142.62 243.042C144.1 258.432 145.619 274.352 147.44 290.222L147.43 290.622C145.39 303.882 142.79 316.572 139.7 328.322C139.53 328.981 138.93 329.441 138.25 329.441ZM133.14 281.752C133.12 281.752 133.1 281.752 133.08 281.752C132.25 281.712 131.6 281.012 131.64 280.192C131.67 279.362 132.35 278.692 133.19 278.752C133.59 278.762 133.97 278.932 134.24 279.232C134.51 279.522 134.65 279.902 134.63 280.302C134.6 281.112 133.94 281.752 133.14 281.752ZM133.42 271.752C133.41 271.752 133.4 271.752 133.39 271.752C132.57 271.742 131.92 271.092 131.91 270.262V270.232C131.95 267.722 131.98 265.192 131.98 262.702C131.98 227.182 127.73 189.952 119.35 152.022L119.32 151.822C118.18 138.032 115.76 126.722 112.23 112.932L112.21 112.862C111.57 109.672 110.91 106.472 110.27 103.382C109.63 100.272 108.97 97.0617 108.32 93.8617C108.18 93.1617 108.56 92.4517 109.22 92.1817C109.88 91.9117 110.66 92.1517 111.05 92.7417C113.28 96.1217 115.51 99.5617 117.66 102.882C119.89 106.322 122.2 109.872 124.5 113.372L124.71 113.872C128.52 131.482 131.7 149.592 134.44 169.252C134.5 169.652 134.4 170.042 134.15 170.362C133.91 170.682 133.56 170.892 133.16 170.952C132.36 171.062 131.58 170.482 131.47 169.672C128.75 150.172 125.6 132.222 121.84 114.792C119.57 111.342 117.3 107.832 115.1 104.452C114.35 103.282 113.59 102.122 112.84 100.962L113.25 102.992C113.87 106.012 114.52 109.122 115.15 112.232C118.71 126.112 121.14 137.512 122.3 151.472C126.45 170.282 129.62 189.062 131.73 207.262C133.88 225.952 134.98 244.602 134.98 262.702C134.98 265.212 134.95 267.752 134.91 270.282C134.9 271.092 134.23 271.752 133.42 271.752ZM134.29 180.872C133.54 180.872 132.9 180.312 132.8 179.572C132.8 179.572 132.8 179.572 132.8 179.562C132.69 178.742 133.27 177.992 134.09 177.882C134.91 177.782 135.67 178.372 135.77 179.182C135.88 180.002 135.3 180.752 134.48 180.862C134.42 180.872 134.35 180.872 134.29 180.872Z" fill="#27187E"/>
<path d="M114.82 280.922C114.77 280.922 114.73 280.922 114.69 280.922C113.9 280.852 113.32 280.212 113.32 279.422L113.35 277.802C113.59 276.692 113.79 275.542 113.99 274.322C114.19 273.152 114.4 271.942 114.65 270.762C114.82 269.982 115.61 269.452 116.4 269.602C117.21 269.762 117.74 270.522 117.6 271.332C117.36 272.672 117.16 274.052 116.96 275.392C116.76 276.792 116.55 278.242 116.3 279.682C116.17 280.402 115.55 280.922 114.82 280.922Z" fill="#27187E"/>
<path d="M92.94 321.532C92.81 321.532 92.68 321.511 92.56 321.481C91.85 321.301 91.36 320.612 91.44 319.881C93.55 299.511 94.83 278.291 95.36 255.011C95.38 254.201 96.05 253.541 96.86 253.541H96.9C97.72 253.561 98.36 254.221 98.36 255.041C98.36 255.041 98.36 255.051 98.36 255.061V255.071C97.92 274.381 96.97 292.161 95.45 309.421L96.08 308.001C96.19 307.661 96.31 307.331 96.42 307.001C96.78 305.941 97.09 305.011 97.31 304.121C97.37 303.911 97.46 303.711 97.59 303.551L97.83 302.701C98.32 301.221 98.8 299.751 99.29 298.27L99.49 297.84C99.74 297.06 100 296.28 100.26 295.49L101.22 292.409C103.74 284.169 106.02 275.349 108.01 266.169L108.33 264.989C108.51 264.139 108.71 263.299 108.91 262.499C109.11 261.689 109.3 260.929 109.45 260.179L109.64 258.759C109.78 258.149 109.9 257.579 110.02 256.969C110.14 256.369 110.26 255.749 110.42 255.079L110.56 254.099V254.039L110.6 253.729C110.92 252.259 111.25 250.589 111.53 249.149V248.799L111.569 248.479C111.609 248.279 111.659 248.089 111.699 247.889C111.869 247.099 112.679 246.559 113.479 246.729C114.289 246.899 114.799 247.699 114.629 248.509C114.599 248.669 114.569 248.819 114.529 248.969V249.289L114.509 249.579C114.189 251.189 113.879 252.759 113.559 254.209L113.549 254.409L113.359 255.709C113.209 256.309 113.099 256.869 112.979 257.479C112.859 258.079 112.729 258.699 112.569 259.379L112.399 260.719C112.229 261.599 112.009 262.459 111.809 263.289C111.609 264.099 111.409 264.869 111.269 265.629L111.239 265.739L110.929 266.859C108.929 276.069 106.629 284.959 104.089 293.289L103.759 294.459C103.539 295.139 103.319 295.809 103.099 296.479C102.829 297.28 102.569 298.08 102.299 298.889L102.099 299.32C101.659 300.66 101.219 302 100.769 303.349L100.689 303.61L100.379 304.719C100.319 304.899 100.239 305.07 100.129 305.219C99.879 306.139 99.579 307.009 99.269 307.929C99.149 308.299 99.019 308.659 98.899 309.039L98.229 310.569C98.089 310.968 97.939 311.388 97.789 311.798C97.549 312.438 97.299 313.098 97.129 313.718L97.069 313.898L96.689 314.798C96.669 314.968 96.619 315.138 96.549 315.288C95.999 316.388 95.539 317.558 95.009 319.187C94.939 319.387 94.829 319.578 94.689 319.727L94.309 320.618C94.08 321.172 93.54 321.532 92.94 321.532ZM97.04 246.542H97.02C96.62 246.542 96.25 246.372 95.97 246.092C95.69 245.802 95.54 245.422 95.54 245.022C95.55 244.212 96.23 243.542 97.04 243.542H97.06C97.46 243.552 97.84 243.712 98.12 243.992C98.39 244.282 98.55 244.662 98.54 245.062C98.53 245.882 97.86 246.542 97.04 246.542ZM114.78 239.832C114.71 239.832 114.63 239.832 114.55 239.812C114.15 239.752 113.8 239.542 113.57 239.212C113.33 238.892 113.24 238.502 113.3 238.102C113.43 237.292 114.19 236.732 115.01 236.852C115.41 236.912 115.76 237.122 115.99 237.452C116.23 237.772 116.33 238.172 116.26 238.572C116.15 239.302 115.53 239.832 114.78 239.832ZM97.12 236.542C96.29 236.542 95.62 235.862 95.63 235.042C95.63 233.212 95.64 231.712 95.64 230.302C95.64 190.472 93.6 150.212 91.6 116.092C91.55 115.322 92.09 114.642 92.85 114.522C98.99 113.512 105.09 112.482 110.99 111.492L113.43 111.082C114.2 110.952 114.95 111.442 115.14 112.192C119 127.462 121.35 141.902 122.31 156.342L122.32 156.452C122.18 182.772 120.67 206.382 117.7 228.642C117.59 229.442 116.83 230.042 116.02 229.922C115.27 229.832 114.71 229.182 114.71 228.432C114.71 228.372 114.72 228.302 114.73 228.242V228.232C117.68 206.122 119.17 182.672 119.32 156.502C118.39 142.682 116.18 128.872 112.56 114.272L110.81 114.562C105.56 115.452 100.12 116.362 94.67 117.262C96.63 150.912 98.64 190.642 98.64 230.302C98.64 232.082 98.63 233.632 98.63 235.052C98.62 235.872 97.95 236.542 97.12 236.542Z" fill="#27187E"/>
<path d="M145.949 155.492C145.119 155.492 144.45 154.822 144.45 153.992V57.7117C144.45 56.8817 145.119 56.2017 145.949 56.2017C146.779 56.2017 147.449 56.8817 147.449 57.7117V153.992C147.449 154.822 146.78 155.492 145.949 155.492Z" fill="#27187E"/>
<path d="M177.73 485.452H177.72C176.9 485.452 176.23 484.771 176.23 483.952L176.06 390.802C175.83 389.912 175.63 389.032 175.44 388.182C175.35 387.802 175.27 387.432 175.18 387.062C175.09 386.972 175.02 386.863 174.95 386.752C168.711 375.512 163.211 363.042 158.6 349.702C158.47 349.322 158.49 348.922 158.67 348.561C158.84 348.191 159.149 347.931 159.529 347.801C160.289 347.531 161.17 347.961 161.429 348.721C165.788 361.311 170.939 373.112 176.749 383.791C177.228 383.951 177.589 384.331 177.719 384.811C177.969 385.761 178.179 386.691 178.379 387.591C178.589 388.501 178.778 389.362 179.009 390.221L179.059 390.601L179.219 483.941C179.229 484.341 179.069 484.721 178.788 485.002C178.5 485.292 178.13 485.441 177.73 485.452ZM156.92 341.212C156.25 341.212 155.68 340.782 155.489 340.151C155.369 339.761 155.409 339.362 155.59 339.002C155.78 338.651 156.1 338.392 156.48 338.272C157.27 338.033 158.12 338.493 158.35 339.272C158.6 340.062 158.15 340.902 157.36 341.142C157.22 341.191 157.07 341.212 156.92 341.212ZM154.15 331.602C153.47 331.602 152.88 331.142 152.7 330.493C150.53 322.463 148.58 313.972 146.91 305.253C146.751 304.443 147.28 303.652 148.1 303.493C148.91 303.333 149.7 303.883 149.85 304.682C151.52 313.332 153.45 321.752 155.6 329.712C155.63 329.832 155.65 329.952 155.65 330.082C155.66 330.762 155.2 331.372 154.54 331.552C154.409 331.582 154.28 331.602 154.15 331.602Z" fill="#27187E"/>
<path d="M114.49 484.952C113.67 484.952 112.99 484.282 112.99 483.452V390.612L113.04 390.221C113.28 389.362 113.47 388.511 113.68 387.601C113.88 386.691 114.09 385.761 114.35 384.811C114.48 384.332 114.83 383.952 115.31 383.791C120.99 373.281 126.13 361.301 130.59 348.181C130.85 347.421 131.72 346.981 132.49 347.242C133.28 347.512 133.7 348.362 133.43 349.141C128.7 363.061 123.21 375.711 117.11 386.751C117.05 386.861 116.97 386.971 116.88 387.061C116.79 387.441 116.7 387.822 116.61 388.211C116.42 389.051 116.23 389.921 115.99 390.801V483.451C115.99 484.282 115.32 484.952 114.49 484.952ZM135.07 340.642C134.92 340.642 134.77 340.622 134.63 340.582C134.25 340.462 133.93 340.202 133.74 339.852C133.56 339.493 133.52 339.092 133.63 338.712C133.86 337.941 134.73 337.472 135.5 337.712C135.89 337.822 136.2 338.082 136.39 338.432C136.58 338.792 136.62 339.192 136.5 339.582C136.31 340.212 135.73 340.642 135.07 340.642ZM137.82 331.032C137.69 331.032 137.56 331.011 137.43 330.981C136.77 330.801 136.31 330.191 136.32 329.511C136.32 329.391 136.34 329.261 136.37 329.141C136.72 327.851 137.05 326.591 137.36 325.391C137.56 324.612 138.4 324.112 139.19 324.311C139.57 324.412 139.9 324.662 140.1 325.001C140.31 325.351 140.36 325.751 140.26 326.141C139.95 327.371 139.61 328.641 139.27 329.921C139.09 330.572 138.5 331.032 137.82 331.032Z" fill="#27187E"/>
</g>
</svg>
