<svg width="39" height="32" viewBox="0 0 39 32" fill="none" xmlns="http://www.w3.org/2000/svg">
<path fill-rule="evenodd" clip-rule="evenodd" d="M20.7606 21.4896C20.3798 21.1088 20.3798 20.4915 20.7606 20.1107L25.2711 15.6001L20.7606 11.0896C20.3798 10.7088 20.3798 10.0915 20.7606 9.71072C21.1413 9.32996 21.7587 9.32996 22.1394 9.71072L27.3394 14.9107C27.7202 15.2915 27.7202 15.9088 27.3394 16.2896L22.1394 21.4896C21.7587 21.8703 21.1413 21.8703 20.7606 21.4896Z" fill="#879BFF"/>
<path fill-rule="evenodd" clip-rule="evenodd" d="M12.9605 21.4896C12.5798 21.1088 12.5798 20.4915 12.9605 20.1107L17.4711 15.6001L12.9605 11.0896C12.5798 10.7088 12.5798 10.0915 12.9605 9.71072C13.3413 9.32996 13.9586 9.32996 14.3394 9.71072L19.5394 14.9107C19.9201 15.2915 19.9201 15.9088 19.5394 16.2896L14.3394 21.4896C13.9586 21.8703 13.3413 21.8703 12.9605 21.4896Z" fill="#879BFF"/>
</svg>
