<svg width="220" height="171" viewBox="0 0 220 171" fill="none" xmlns="http://www.w3.org/2000/svg">
<g opacity="0.8">
<path d="M61.2113 125.294L43.2894 162.638L43.2424 109.799L219.094 0L61.2113 125.294Z" fill="#27187E"/>
<path opacity="0.13" d="M43.2866 110.199L148.907 55.3997L60.707 126.344L43.4269 162.052L43.2866 110.199Z" fill="#6D6E6F"/>
<path d="M43.2894 162.638L60.6698 125.867L218.705 0.544189L43.2894 162.638Z" fill="#3B455A"/>
<path d="M218.705 0.544256L219.094 0L217.044 1.58648L218.705 0.544256Z" fill="#707F78"/>
<path d="M218.705 0.544189L217.044 1.58641L60.7132 125.635L60.5337 125.743L110.919 171L218.705 0.544189Z" fill="#AEB8FE"/>
<path d="M219.094 0L0 71.3718L42.9899 109.986L217.044 1.58648L219.094 0Z" fill="#AEB8FE"/>
</g>
</svg>
