<svg width="29" height="28" viewBox="0 0 29 28" fill="none" xmlns="http://www.w3.org/2000/svg">
<path fill-rule="evenodd" clip-rule="evenodd" d="M22.9761 12.231C24.1333 13.1264 24.1333 14.8735 22.9761 15.7688C19.479 18.4748 15.5739 20.6077 11.4071 22.0876L10.6459 22.3579C9.18957 22.8751 7.65131 21.8898 7.45415 20.3865C6.9033 16.1863 6.9033 11.8136 7.45416 7.61336C7.65131 6.11006 9.18957 5.12474 10.6459 5.64197L11.4071 5.91232C15.5739 7.39222 19.479 9.52506 22.9761 12.231ZM21.9052 14.3848C22.1569 14.19 22.1569 13.8099 21.9052 13.6151C18.5547 11.0226 14.8134 8.97923 10.8214 7.5614L10.0602 7.29105C9.68109 7.1564 9.24542 7.41301 9.1893 7.84092C8.65826 11.8901 8.65826 16.1098 9.1893 20.159C9.24542 20.5869 9.68109 20.8435 10.0602 20.7088L10.8214 20.4385C14.8134 19.0206 18.5547 16.9773 21.9052 14.3848Z" fill="#27187E"/>
</svg>
